{"glyphs":{"0":{"ha":781,"x_min":78,"x_max":702,"o":"m 702 421 q 622 88 702 189 q 391 -14 543 -14 q 159 88 241 -14 q 78 421 78 190 l 78 572 q 158 902 78 803 q 390 1001 239 1001 q 622 902 542 1001 q 702 572 702 803 l 702 421 m 575 593 q 529 828 575 756 q 390 899 484 899 q 251 827 298 899 q 205 593 205 755 l 205 401 q 252 164 205 239 q 391 88 300 88 q 530 163 484 88 q 575 401 575 238 l 575 593 z "},"1":{"ha":781,"x_min":116,"x_max":495,"o":"m 368 0 l 368 838 l 116 745 l 116 858 l 475 993 l 495 993 l 495 0 l 368 0 z "},"2":{"ha":781,"x_min":63,"x_max":730,"o":"m 82 0 l 82 90 l 406 450 q 498 563 466 517 q 544 645 531 608 q 557 722 557 682 q 537 812 557 772 q 478 876 517 852 q 387 899 439 899 q 240 844 290 899 q 190 697 190 789 l 63 697 q 100 851 63 782 q 211 961 138 920 q 387 1001 284 1001 q 545 968 478 1001 q 648 876 612 935 q 684 737 684 816 q 634 569 684 656 q 499 390 585 483 l 235 102 l 730 102 l 730 0 l 82 0 z "},"3":{"ha":781,"x_min":64,"x_max":690,"o":"m 520 507 q 651 415 611 478 q 690 275 690 353 q 650 120 690 185 q 538 21 609 55 q 378 -14 467 -14 q 219 19 290 -14 q 106 114 148 52 q 64 261 64 176 l 191 261 q 214 170 191 210 q 279 110 237 131 q 378 88 321 88 q 514 135 465 88 q 564 273 564 182 q 508 408 564 363 q 355 453 453 453 l 265 453 l 265 528 l 265 555 l 355 555 q 461 576 418 555 q 527 637 505 598 q 549 725 549 675 q 506 855 549 810 q 377 899 463 899 q 284 878 324 899 q 222 819 244 857 q 199 729 199 781 l 73 729 q 111 867 73 804 q 218 965 149 929 q 377 1001 288 1001 q 534 969 467 1001 q 638 874 602 937 q 675 722 675 812 q 659 642 675 684 q 607 565 642 601 q 520 507 572 529 z "},"4":{"ha":781,"x_min":36,"x_max":749,"o":"m 749 230 l 612 230 l 612 0 l 486 0 l 486 230 l 36 230 l 36 303 l 477 987 l 581 987 l 612 987 l 612 332 l 749 332 l 749 230 m 486 332 l 486 817 l 471 790 l 179 332 l 486 332 z "},"5":{"ha":781,"x_min":104,"x_max":726,"o":"m 190 987 l 696 987 l 696 873 l 297 873 l 268 602 q 340 633 298 621 q 432 645 382 645 q 588 605 522 645 q 690 490 654 564 q 726 315 726 415 q 691 144 726 218 q 586 28 656 70 q 413 -14 515 -14 q 264 17 331 -14 q 155 109 197 47 q 104 260 113 170 l 224 260 q 284 132 236 176 q 413 88 333 88 q 513 116 471 88 q 577 194 555 143 q 599 313 599 244 q 576 426 599 376 q 508 505 553 476 q 402 533 464 533 q 335 526 362 533 q 288 506 307 519 q 241 470 268 493 l 140 496 l 190 987 z "},"6":{"ha":781,"x_min":90,"x_max":714,"o":"m 431 648 q 589 602 525 648 q 683 482 652 556 q 714 322 714 408 q 679 151 714 227 q 574 31 644 75 q 408 -14 505 -14 q 234 41 306 -14 q 126 182 162 96 q 90 365 90 269 l 90 425 q 196 830 90 671 q 564 989 301 989 l 574 989 l 574 883 l 564 883 q 314 792 396 883 q 220 559 232 701 q 313 626 259 604 q 431 648 367 648 m 408 90 q 506 118 465 90 q 568 198 547 147 q 589 316 589 250 q 569 429 589 377 q 509 513 549 481 q 410 545 469 545 q 328 527 368 545 q 260 478 289 509 q 217 409 231 447 l 217 361 q 243 215 217 277 q 314 121 270 153 q 408 90 357 90 z "},"7":{"ha":781,"x_min":53,"x_max":721,"o":"m 312 0 l 179 0 l 587 886 l 53 886 l 53 987 l 721 987 l 721 918 l 312 0 z "},"8":{"ha":781,"x_min":77,"x_max":705,"o":"m 537 509 q 660 412 614 475 q 705 267 705 348 q 664 116 705 180 q 551 19 623 52 q 391 -14 480 -14 q 230 19 301 -14 q 117 116 158 52 q 77 267 77 179 q 121 413 77 349 q 242 509 165 477 q 137 600 175 542 q 99 730 99 658 q 136 876 99 814 q 240 969 174 937 q 391 1001 306 1001 q 541 969 475 1001 q 644 876 607 937 q 682 730 682 814 q 643 600 682 658 q 537 509 604 541 m 391 899 q 304 878 342 899 q 247 819 267 857 q 226 728 226 780 q 246 640 226 677 q 304 581 267 602 q 391 559 342 559 q 477 581 439 559 q 534 640 514 602 q 555 728 555 677 q 534 816 555 777 q 476 877 513 855 q 391 899 439 899 m 391 88 q 528 136 478 88 q 578 270 578 184 q 554 367 578 324 q 487 433 530 410 q 389 457 444 457 q 291 433 333 457 q 226 367 249 410 q 203 270 203 325 q 253 136 203 184 q 391 88 303 88 z "},"9":{"ha":781,"x_min":68,"x_max":690,"o":"m 374 1001 q 553 945 482 1001 q 657 799 624 889 q 690 602 690 709 l 690 555 q 654 281 690 402 q 515 79 619 159 q 220 -1 412 -1 l 207 -1 l 207 104 l 220 104 q 482 194 407 104 q 563 434 557 284 q 467 358 522 386 q 350 330 412 330 q 193 377 257 330 q 99 500 130 425 q 68 660 68 575 q 103 833 68 755 q 208 956 138 911 q 374 1001 277 1001 m 370 433 q 485 472 433 433 q 564 569 538 510 l 564 618 q 538 769 564 705 q 469 865 512 832 q 374 898 425 898 q 277 868 318 898 q 214 786 235 838 q 192 667 192 733 q 212 552 192 606 q 272 466 232 499 q 370 433 313 433 z "}," ":{"ha":345,"x_min":0,"x_max":0,"o":""},"A":{"ha":907,"x_min":19,"x_max":889,"o":"m 660 258 l 248 258 l 155 0 l 19 0 l 396 987 l 483 987 l 511 987 l 889 0 l 754 0 l 660 258 m 621 365 l 454 826 l 287 365 l 621 365 z "},"Á":{"ha":907,"x_min":19,"x_max":889,"o":"m 19 0 m 660 258 l 248 258 l 155 0 l 19 0 l 396 987 l 483 987 l 511 987 l 889 0 l 754 0 l 660 258 m 621 365 l 454 826 l 287 365 l 621 365 m 677 1253 l 495 1054 l 393 1054 l 525 1253 l 677 1253 z "},"Â":{"ha":907,"x_min":19,"x_max":889,"o":"m 19 0 m 660 258 l 248 258 l 155 0 l 19 0 l 396 987 l 483 987 l 511 987 l 889 0 l 754 0 l 660 258 m 621 365 l 454 826 l 287 365 l 621 365 m 663 1061 l 558 1061 l 456 1176 l 355 1061 l 252 1061 l 252 1068 l 418 1253 l 494 1253 l 663 1067 l 663 1061 z "},"Ä":{"ha":907,"x_min":19,"x_max":889,"o":"m 19 0 m 660 258 l 248 258 l 155 0 l 19 0 l 396 987 l 483 987 l 511 987 l 889 0 l 754 0 l 660 258 m 621 365 l 454 826 l 287 365 l 621 365 m 312 1213 q 367 1193 347 1213 q 387 1141 387 1173 q 367 1091 387 1111 q 312 1071 347 1071 q 257 1091 277 1071 q 237 1141 237 1111 q 257 1193 237 1173 q 312 1213 277 1213 m 604 1212 q 659 1192 639 1212 q 679 1140 679 1171 q 659 1089 679 1109 q 604 1069 639 1069 q 549 1089 568 1069 q 530 1140 530 1109 q 549 1192 530 1171 q 604 1212 568 1212 z "},"À":{"ha":907,"x_min":19,"x_max":889,"o":"m 19 0 m 660 258 l 248 258 l 155 0 l 19 0 l 396 987 l 483 987 l 511 987 l 889 0 l 754 0 l 660 258 m 621 365 l 454 826 l 287 365 l 621 365 m 408 1054 l 233 1253 l 386 1253 l 517 1054 l 408 1054 z "},"Å":{"ha":907,"x_min":19,"x_max":889,"o":"m 19 0 m 660 258 l 248 258 l 155 0 l 19 0 l 396 987 l 483 987 l 511 987 l 889 0 l 754 0 l 660 258 m 621 365 l 454 826 l 287 365 l 621 365 m 456 1314 q 530 1296 497 1314 q 583 1244 564 1277 q 602 1173 602 1212 q 583 1103 602 1135 q 530 1054 564 1072 q 456 1036 497 1036 q 382 1054 415 1036 q 329 1103 349 1072 q 310 1173 310 1135 q 329 1244 310 1212 q 382 1296 349 1277 q 456 1314 416 1314 m 456 1095 q 513 1119 490 1095 q 535 1173 535 1142 q 513 1230 535 1206 q 456 1254 490 1254 q 400 1230 422 1254 q 378 1173 378 1206 q 388 1135 378 1153 q 416 1106 398 1117 q 456 1095 434 1095 z "},"Ã":{"ha":907,"x_min":19,"x_max":889,"o":"m 19 0 m 660 258 l 248 258 l 155 0 l 19 0 l 396 987 l 483 987 l 511 987 l 889 0 l 754 0 l 660 258 m 621 365 l 454 826 l 287 365 l 621 365 m 697 1231 q 678 1145 697 1183 q 625 1088 659 1108 q 551 1067 591 1067 q 497 1076 519 1067 q 450 1102 475 1085 q 411 1124 429 1117 q 370 1132 393 1132 q 321 1110 340 1132 q 302 1056 302 1088 l 217 1061 q 236 1147 217 1109 q 289 1206 256 1185 q 363 1227 322 1227 q 409 1219 389 1227 q 458 1194 429 1211 q 503 1170 484 1178 q 545 1162 522 1162 q 593 1184 573 1162 q 612 1239 612 1206 l 697 1231 z "},"Æ":{"ha":1299,"x_min":-11,"x_max":1276,"o":"m 1276 102 l 1276 0 l 779 0 l 675 0 l 665 240 l 283 240 l 144 0 l -11 0 l 587 987 l 668 987 l 761 987 l 1234 987 l 1234 886 l 765 886 l 779 565 l 1179 565 l 1179 463 l 783 463 l 798 102 l 1276 102 m 661 357 l 640 855 l 351 357 l 661 357 z "},"B":{"ha":865,"x_min":115,"x_max":787,"o":"m 614 520 q 741 434 696 498 q 787 285 787 370 q 747 130 787 194 q 633 33 707 66 q 460 0 559 0 l 165 0 l 115 0 l 115 987 l 439 987 q 677 923 594 987 q 761 724 761 859 q 722 603 761 656 q 614 520 683 549 m 246 881 l 246 566 l 442 566 q 540 585 498 566 q 606 640 583 604 q 629 726 629 676 q 583 844 629 806 q 439 881 536 881 l 246 881 m 460 106 q 604 154 552 106 q 655 283 655 201 q 609 416 655 369 q 467 463 563 463 l 246 463 l 246 106 l 460 106 z "},"C":{"ha":904,"x_min":81,"x_max":842,"o":"m 842 313 q 787 143 831 217 q 662 28 743 70 q 467 -14 582 -14 q 264 43 352 -14 q 129 203 177 100 q 81 444 81 307 l 81 543 q 129 784 81 680 q 268 944 178 888 q 479 1001 358 1001 q 666 960 588 1001 q 788 845 744 919 q 842 671 831 770 l 710 671 q 641 838 694 781 q 479 895 587 895 q 333 851 393 895 q 243 729 273 808 q 213 545 213 650 l 213 444 q 241 264 213 343 q 326 138 269 184 q 467 92 382 92 q 597 118 547 92 q 672 191 647 143 q 710 313 698 239 l 842 313 z "},"Ç":{"ha":904,"x_min":81,"x_max":842,"o":"m 467 92 q 597 118 547 92 q 672 191 647 143 q 710 313 698 239 l 842 313 q 743 87 826 174 q 509 -12 659 -1 l 502 -43 q 576 -78 547 -50 q 606 -160 606 -106 q 552 -263 606 -225 q 399 -302 498 -302 l 395 -230 q 476 -213 445 -230 q 507 -163 507 -197 q 496 -127 507 -140 q 462 -108 485 -114 q 398 -98 439 -102 l 418 -11 q 240 60 316 1 q 122 218 163 119 q 81 444 81 317 l 81 543 q 129 784 81 680 q 268 944 178 888 q 479 1001 358 1001 q 666 960 588 1001 q 788 845 744 919 q 842 671 831 770 l 710 671 q 641 838 694 781 q 479 895 587 895 q 333 851 393 895 q 243 729 273 808 q 213 545 213 650 l 213 444 q 241 264 213 343 q 326 138 269 184 q 467 92 382 92 z "},"D":{"ha":911,"x_min":115,"x_max":829,"o":"m 393 987 q 622 931 523 987 q 775 769 720 874 q 829 524 829 664 l 829 464 q 775 217 829 322 q 619 56 720 113 q 382 0 518 0 l 176 0 l 115 0 l 115 987 l 246 987 l 393 987 m 699 525 q 664 717 699 637 q 559 839 628 797 q 393 881 490 881 l 246 881 l 246 106 l 382 106 q 556 150 485 106 q 663 274 627 193 q 699 464 699 354 l 699 525 z "},"Ð":{"ha":911,"x_min":4,"x_max":829,"o":"m 393 987 q 622 931 523 987 q 775 769 720 874 q 829 524 829 664 l 829 464 q 775 217 829 322 q 619 56 720 113 q 382 0 518 0 l 176 0 l 115 0 l 115 452 l 4 452 l 4 553 l 115 553 l 115 987 l 246 987 l 393 987 m 699 525 q 664 717 699 637 q 559 839 628 797 q 393 881 490 881 l 246 881 l 246 553 l 437 553 l 437 452 l 246 452 l 246 106 l 382 106 q 556 150 485 106 q 663 274 627 193 q 699 464 699 354 l 699 525 z "},"E":{"ha":789,"x_min":115,"x_max":742,"o":"m 742 106 l 742 0 l 220 0 l 115 0 l 115 987 l 246 987 l 735 987 l 735 881 l 246 881 l 246 563 l 673 563 l 673 457 l 246 457 l 246 106 l 742 106 z "},"É":{"ha":789,"x_min":115,"x_max":742,"o":"m 115 0 m 742 106 l 742 0 l 220 0 l 115 0 l 115 987 l 246 987 l 735 987 l 735 881 l 246 881 l 246 563 l 673 563 l 673 457 l 246 457 l 246 106 l 742 106 m 641 1260 l 458 1061 l 357 1061 l 488 1260 l 641 1260 z "},"Ê":{"ha":789,"x_min":115,"x_max":742,"o":"m 115 0 m 742 106 l 742 0 l 220 0 l 115 0 l 115 987 l 246 987 l 735 987 l 735 881 l 246 881 l 246 563 l 673 563 l 673 457 l 246 457 l 246 106 l 742 106 m 626 1068 l 522 1068 l 420 1183 l 319 1068 l 215 1068 l 215 1076 l 382 1260 l 458 1260 l 626 1075 l 626 1068 z "},"Ë":{"ha":789,"x_min":115,"x_max":742,"o":"m 115 0 m 742 106 l 742 0 l 220 0 l 115 0 l 115 987 l 246 987 l 735 987 l 735 881 l 246 881 l 246 563 l 673 563 l 673 457 l 246 457 l 246 106 l 742 106 m 275 1221 q 330 1200 311 1221 q 350 1149 350 1180 q 330 1098 350 1118 q 275 1078 311 1078 q 220 1098 240 1078 q 201 1149 201 1118 q 220 1200 201 1180 q 275 1221 240 1221 m 567 1219 q 622 1199 602 1219 q 642 1147 642 1179 q 622 1097 642 1117 q 567 1077 602 1077 q 512 1097 532 1077 q 493 1147 493 1117 q 512 1199 493 1179 q 567 1219 532 1219 z "},"È":{"ha":789,"x_min":115,"x_max":742,"o":"m 115 0 m 742 106 l 742 0 l 220 0 l 115 0 l 115 987 l 246 987 l 735 987 l 735 881 l 246 881 l 246 563 l 673 563 l 673 457 l 246 457 l 246 106 l 742 106 m 372 1061 l 196 1260 l 349 1260 l 480 1061 l 372 1061 z "},"F":{"ha":768,"x_min":115,"x_max":726,"o":"m 246 881 l 246 543 l 659 543 l 659 437 l 246 437 l 246 0 l 115 0 l 115 987 l 246 987 l 726 987 l 726 881 l 246 881 z "},"G":{"ha":946,"x_min":83,"x_max":844,"o":"m 844 130 q 723 30 805 73 q 495 -14 642 -14 q 281 42 374 -14 q 135 204 188 98 q 83 455 83 311 l 83 533 q 129 785 83 680 q 264 945 175 890 q 479 1001 353 1001 q 733 919 642 1001 q 844 699 825 837 l 713 699 q 642 841 698 787 q 480 895 586 895 q 281 800 347 895 q 215 534 215 706 l 215 455 q 250 261 215 343 q 348 136 285 179 q 496 92 412 92 q 637 113 589 92 q 713 164 686 134 l 713 387 l 486 387 l 486 492 l 844 492 l 844 130 z "},"H":{"ha":991,"x_min":115,"x_max":874,"o":"m 874 987 l 874 0 l 743 0 l 743 457 l 246 457 l 246 0 l 115 0 l 115 987 l 246 987 l 246 563 l 743 563 l 743 987 l 874 987 z "},"I":{"ha":378,"x_min":124,"x_max":256,"o":"m 124 0 l 124 987 l 256 987 l 256 0 l 124 0 z "},"Í":{"ha":378,"x_min":124,"x_max":410,"o":"m 124 0 m 124 0 l 124 987 l 256 987 l 256 0 l 124 0 m 410 1260 l 228 1061 l 126 1061 l 258 1260 l 410 1260 z "},"Î":{"ha":378,"x_min":-16,"x_max":395,"o":"m 0 0 m 124 0 l 124 987 l 256 987 l 256 0 l 124 0 m 395 1068 l 291 1068 l 189 1183 l 88 1068 l -16 1068 l -16 1076 l 151 1260 l 227 1260 l 395 1075 l 395 1068 z "},"Ï":{"ha":378,"x_min":-30,"x_max":412,"o":"m 0 0 m 124 0 l 124 987 l 256 987 l 256 0 l 124 0 m 45 1221 q 100 1200 80 1221 q 119 1149 119 1180 q 100 1098 119 1118 q 45 1078 80 1078 q -10 1098 9 1078 q -30 1149 -30 1118 q -10 1200 -30 1180 q 45 1221 9 1221 m 336 1219 q 392 1199 372 1219 q 412 1147 412 1179 q 392 1097 412 1117 q 336 1077 372 1077 q 282 1097 301 1077 q 262 1147 262 1117 q 282 1199 262 1179 q 336 1219 301 1219 z "},"Ì":{"ha":378,"x_min":-35,"x_max":256,"o":"m 0 0 m 124 0 l 124 987 l 256 987 l 256 0 l 124 0 m 141 1061 l -35 1260 l 119 1260 l 250 1061 l 141 1061 z "},"J":{"ha":766,"x_min":36,"x_max":660,"o":"m 660 987 l 660 289 q 620 125 660 193 q 510 22 581 57 q 348 -14 439 -14 q 185 18 255 -14 q 75 114 115 50 q 36 273 36 178 l 168 273 q 216 138 168 183 q 348 92 265 92 q 441 115 400 92 q 505 182 481 138 q 528 289 528 227 l 528 987 l 660 987 z "},"K":{"ha":871,"x_min":115,"x_max":872,"o":"m 367 460 l 246 335 l 246 0 l 115 0 l 115 987 l 246 987 l 246 500 l 684 987 l 842 987 l 454 552 l 872 0 l 715 0 l 367 460 z "},"L":{"ha":748,"x_min":115,"x_max":714,"o":"m 714 106 l 714 0 l 220 0 l 115 0 l 115 987 l 246 987 l 246 106 l 714 106 z "},"M":{"ha":1213,"x_min":115,"x_max":1098,"o":"m 1098 0 l 967 0 l 967 386 l 979 798 l 656 0 l 556 0 l 233 797 l 245 386 l 245 0 l 115 0 l 115 987 l 227 987 l 284 987 l 606 180 l 928 987 l 1098 987 l 1098 0 z "},"N":{"ha":991,"x_min":115,"x_max":874,"o":"m 742 0 l 246 764 l 246 0 l 115 0 l 115 987 l 246 987 l 744 222 l 744 987 l 874 987 l 874 0 l 742 0 z "},"Ñ":{"ha":991,"x_min":115,"x_max":874,"o":"m 115 0 m 742 0 l 246 764 l 246 0 l 115 0 l 115 987 l 246 987 l 744 222 l 744 987 l 874 987 l 874 0 l 742 0 m 733 1231 q 714 1145 733 1183 q 661 1088 694 1108 q 587 1067 627 1067 q 533 1076 555 1067 q 486 1102 511 1085 q 447 1124 465 1117 q 406 1132 429 1132 q 357 1110 376 1132 q 338 1056 338 1088 l 253 1061 q 272 1147 253 1109 q 325 1206 292 1185 q 399 1227 358 1227 q 445 1219 425 1227 q 494 1194 465 1211 q 538 1170 519 1178 q 581 1162 557 1162 q 629 1184 609 1162 q 648 1239 648 1206 l 733 1231 z "},"O":{"ha":956,"x_min":80,"x_max":875,"o":"m 875 462 q 826 208 875 315 q 688 44 778 101 q 479 -14 599 -14 q 272 44 362 -14 q 131 209 181 102 q 80 462 80 317 l 80 525 q 130 778 80 670 q 271 943 180 886 q 477 1001 361 1001 q 687 943 597 1001 q 826 778 777 886 q 875 525 875 671 l 875 462 m 745 526 q 713 725 745 643 q 622 848 682 806 q 477 890 562 890 q 336 848 397 890 q 243 724 276 806 q 211 526 211 642 l 211 462 q 244 263 211 345 q 337 139 277 181 q 479 96 397 96 q 675 191 606 96 q 745 462 745 285 l 745 526 z "},"Ó":{"ha":956,"x_min":80,"x_max":875,"o":"m 80 0 m 875 462 q 826 208 875 315 q 688 44 778 101 q 479 -14 599 -14 q 272 44 362 -14 q 131 209 181 102 q 80 462 80 317 l 80 525 q 130 778 80 670 q 271 943 180 886 q 477 1001 361 1001 q 687 943 597 1001 q 826 778 777 886 q 875 525 875 671 l 875 462 m 745 526 q 713 725 745 643 q 622 848 682 806 q 477 890 562 890 q 336 848 397 890 q 243 724 276 806 q 211 526 211 642 l 211 462 q 244 263 211 345 q 337 139 277 181 q 479 96 397 96 q 675 191 606 96 q 745 462 745 285 l 745 526 m 701 1254 l 518 1055 l 416 1055 l 548 1254 l 701 1254 z "},"Ô":{"ha":956,"x_min":80,"x_max":875,"o":"m 80 0 m 875 462 q 826 208 875 315 q 688 44 778 101 q 479 -14 599 -14 q 272 44 362 -14 q 131 209 181 102 q 80 462 80 317 l 80 525 q 130 778 80 670 q 271 943 180 886 q 477 1001 361 1001 q 687 943 597 1001 q 826 778 777 886 q 875 525 875 671 l 875 462 m 745 526 q 713 725 745 643 q 622 848 682 806 q 477 890 562 890 q 336 848 397 890 q 243 724 276 806 q 211 526 211 642 l 211 462 q 244 263 211 345 q 337 139 277 181 q 479 96 397 96 q 675 191 606 96 q 745 462 745 285 l 745 526 m 686 1062 l 581 1062 l 479 1177 l 378 1062 l 275 1062 l 275 1069 l 441 1254 l 517 1254 l 686 1069 l 686 1062 z "},"Ö":{"ha":956,"x_min":80,"x_max":875,"o":"m 80 0 m 875 462 q 826 208 875 315 q 688 44 778 101 q 479 -14 599 -14 q 272 44 362 -14 q 131 209 181 102 q 80 462 80 317 l 80 525 q 130 778 80 670 q 271 943 180 886 q 477 1001 361 1001 q 687 943 597 1001 q 826 778 777 886 q 875 525 875 671 l 875 462 m 745 526 q 713 725 745 643 q 622 848 682 806 q 477 890 562 890 q 336 848 397 890 q 243 724 276 806 q 211 526 211 642 l 211 462 q 244 263 211 345 q 337 139 277 181 q 479 96 397 96 q 675 191 606 96 q 745 462 745 285 l 745 526 m 335 1215 q 390 1194 370 1215 q 410 1143 410 1174 q 390 1092 410 1112 q 335 1072 370 1072 q 280 1092 300 1072 q 260 1143 260 1112 q 280 1194 260 1174 q 335 1215 300 1215 m 627 1213 q 682 1193 662 1213 q 702 1141 702 1173 q 682 1091 702 1111 q 627 1071 662 1071 q 572 1091 591 1071 q 553 1141 553 1111 q 572 1193 553 1173 q 627 1213 591 1213 z "},"Ò":{"ha":956,"x_min":80,"x_max":875,"o":"m 80 0 m 875 462 q 826 208 875 315 q 688 44 778 101 q 479 -14 599 -14 q 272 44 362 -14 q 131 209 181 102 q 80 462 80 317 l 80 525 q 130 778 80 670 q 271 943 180 886 q 477 1001 361 1001 q 687 943 597 1001 q 826 778 777 886 q 875 525 875 671 l 875 462 m 745 526 q 713 725 745 643 q 622 848 682 806 q 477 890 562 890 q 336 848 397 890 q 243 724 276 806 q 211 526 211 642 l 211 462 q 244 263 211 345 q 337 139 277 181 q 479 96 397 96 q 675 191 606 96 q 745 462 745 285 l 745 526 m 431 1055 l 256 1254 l 409 1254 l 540 1055 l 431 1055 z "},"Ø":{"ha":956,"x_min":80,"x_max":888,"o":"m 781 855 q 851 710 827 794 q 875 525 875 627 l 875 462 q 826 208 875 315 q 688 44 778 101 q 479 -14 599 -14 q 274 42 366 -14 l 209 -63 l 111 -63 l 210 94 q 114 250 147 157 q 80 462 80 344 l 80 525 q 130 778 80 670 q 271 943 180 886 q 477 1001 361 1001 q 612 980 550 1001 q 723 917 674 958 l 793 1028 l 888 1028 l 781 855 m 211 462 q 277 201 211 298 l 659 814 q 477 890 591 890 q 336 848 397 890 q 243 724 276 806 q 211 526 211 642 l 211 462 m 745 526 q 707 738 745 652 l 336 140 q 479 96 396 96 q 675 191 606 96 q 745 462 745 285 l 745 526 z "},"Õ":{"ha":956,"x_min":80,"x_max":875,"o":"m 80 0 m 875 462 q 826 208 875 315 q 688 44 778 101 q 479 -14 599 -14 q 272 44 362 -14 q 131 209 181 102 q 80 462 80 317 l 80 525 q 130 778 80 670 q 271 943 180 886 q 477 1001 361 1001 q 687 943 597 1001 q 826 778 777 886 q 875 525 875 671 l 875 462 m 745 526 q 713 725 745 643 q 622 848 682 806 q 477 890 562 890 q 336 848 397 890 q 243 724 276 806 q 211 526 211 642 l 211 462 q 244 263 211 345 q 337 139 277 181 q 479 96 397 96 q 675 191 606 96 q 745 462 745 285 l 745 526 m 720 1232 q 701 1147 720 1184 q 648 1089 682 1109 q 574 1069 614 1069 q 520 1078 542 1069 q 473 1103 498 1086 q 434 1126 452 1118 q 393 1133 416 1133 q 344 1111 363 1133 q 325 1057 325 1089 l 240 1062 q 259 1148 240 1110 q 312 1207 279 1186 q 386 1229 345 1229 q 432 1221 412 1229 q 481 1196 452 1213 q 526 1172 507 1179 q 568 1164 545 1164 q 616 1186 596 1164 q 635 1240 635 1208 l 720 1232 z "},"Œ":{"ha":1325,"x_min":71,"x_max":1221,"o":"m 1221 106 l 1221 0 l 699 0 l 647 0 q 540 -11 585 -7 q 449 -14 495 -14 q 252 37 338 -14 q 119 180 166 88 q 71 391 71 272 l 71 597 q 118 807 71 715 q 251 950 165 899 q 448 1002 337 1002 q 647 987 530 1002 l 726 987 l 1215 987 l 1215 881 l 726 881 l 726 563 l 1152 563 l 1152 457 l 726 457 l 726 106 l 1221 106 m 198 391 q 229 225 198 294 q 315 122 259 157 q 449 87 372 87 q 594 98 518 87 l 594 890 q 448 899 522 899 q 314 865 370 899 q 228 763 258 830 q 198 598 198 695 l 198 391 z "},"P":{"ha":877,"x_min":115,"x_max":826,"o":"m 479 987 q 667 949 589 987 q 786 843 745 911 q 826 686 826 775 q 786 524 826 591 q 668 422 746 457 q 479 387 591 387 l 246 387 l 246 0 l 115 0 l 115 987 l 479 987 m 479 493 q 642 545 589 493 q 694 685 694 596 q 672 783 694 739 q 601 854 649 827 q 479 881 552 881 l 246 881 l 246 493 l 479 493 z "},"Þ":{"ha":821,"x_min":113,"x_max":758,"o":"m 427 789 q 606 752 532 789 q 720 650 681 715 q 758 500 758 585 q 720 352 758 417 q 606 250 681 287 q 427 213 532 213 l 239 213 l 239 0 l 113 0 l 113 987 l 239 987 l 239 789 l 427 789 m 427 315 q 542 340 496 315 q 610 408 588 366 q 631 499 631 450 q 610 592 631 549 q 542 661 588 635 q 427 687 496 687 l 239 687 l 239 315 l 427 315 z "},"Q":{"ha":956,"x_min":74,"x_max":873,"o":"m 784 -168 l 575 -1 q 473 -14 528 -14 q 266 44 356 -14 q 124 209 175 102 q 74 462 74 317 l 74 525 q 124 778 74 670 q 264 943 174 886 q 471 1001 355 1001 q 681 944 591 1001 q 820 779 771 886 q 869 525 869 671 l 869 462 q 824 217 869 321 q 696 53 779 112 l 873 -86 l 784 -168 m 205 462 q 238 263 205 345 q 332 139 271 181 q 473 96 392 96 q 669 191 600 96 q 739 462 739 285 l 739 526 q 707 725 739 643 q 615 848 675 806 q 471 890 555 890 q 331 848 391 890 q 238 724 271 806 q 205 526 205 642 l 205 462 z "},"R":{"ha":855,"x_min":115,"x_max":831,"o":"m 831 8 l 831 0 l 690 0 l 476 400 l 246 400 l 246 0 l 115 0 l 115 987 l 441 987 q 699 911 609 987 q 788 691 788 835 q 738 531 788 600 q 600 427 688 462 l 831 8 m 445 506 q 560 530 513 506 q 632 597 608 555 q 656 691 656 639 q 603 831 656 781 q 441 881 550 881 l 246 881 l 246 506 l 445 506 z "},"S":{"ha":825,"x_min":55,"x_max":772,"o":"m 406 441 q 168 555 249 487 q 86 732 86 623 q 128 870 86 809 q 246 966 170 931 q 421 1001 322 1001 q 608 960 529 1001 q 729 850 687 918 q 770 703 770 781 l 638 703 q 583 842 638 789 q 421 895 528 895 q 270 850 321 895 q 218 734 218 806 q 242 661 218 692 q 316 603 266 629 q 448 554 366 577 q 633 481 562 522 q 738 384 704 439 q 772 251 772 328 q 730 112 772 172 q 610 19 688 52 q 428 -14 532 -14 q 248 21 334 -14 q 109 124 162 56 q 55 286 55 192 l 186 286 q 219 178 186 221 q 307 113 252 134 q 428 92 361 92 q 585 134 529 92 q 640 250 640 176 q 620 330 640 298 q 550 388 600 362 q 406 441 500 414 z "},"ẞ":{"ha":897,"x_min":97,"x_max":835,"o":"m 518 574 q 752 490 670 566 q 835 277 835 413 q 792 120 835 186 q 675 20 750 55 q 501 -14 600 -14 q 311 20 401 -14 l 347 123 q 501 88 420 88 q 612 112 566 88 q 684 177 659 135 q 709 274 709 219 q 653 427 709 378 q 485 475 597 475 l 385 475 l 385 574 l 385 577 l 593 830 q 509 881 554 862 q 402 899 465 899 q 261 833 300 899 q 223 651 223 767 l 223 0 l 97 0 l 97 652 q 173 914 97 827 q 402 1001 248 1001 q 587 961 505 1001 q 743 849 669 920 l 518 574 z "},"T":{"ha":829,"x_min":34,"x_max":797,"o":"m 797 881 l 480 881 l 480 0 l 350 0 l 350 881 l 34 881 l 34 987 l 480 987 l 797 987 l 797 881 z "},"U":{"ha":901,"x_min":95,"x_max":810,"o":"m 810 319 q 762 137 810 212 q 632 24 713 62 q 452 -14 550 -14 q 268 24 349 -14 q 141 137 188 62 q 95 319 95 212 l 95 987 l 225 987 l 225 319 q 286 150 225 207 q 452 92 347 92 q 618 150 557 92 q 678 319 678 207 l 678 987 l 810 987 l 810 319 z "},"Ú":{"ha":901,"x_min":95,"x_max":810,"o":"m 95 0 m 810 319 q 762 137 810 212 q 632 24 713 62 q 452 -14 550 -14 q 268 24 349 -14 q 141 137 188 62 q 95 319 95 212 l 95 987 l 225 987 l 225 319 q 286 150 225 207 q 452 92 347 92 q 618 150 557 92 q 678 319 678 207 l 678 987 l 810 987 l 810 319 m 673 1253 l 491 1054 l 389 1054 l 521 1253 l 673 1253 z "},"Û":{"ha":901,"x_min":95,"x_max":810,"o":"m 95 0 m 810 319 q 762 137 810 212 q 632 24 713 62 q 452 -14 550 -14 q 268 24 349 -14 q 141 137 188 62 q 95 319 95 212 l 95 987 l 225 987 l 225 319 q 286 150 225 207 q 452 92 347 92 q 618 150 557 92 q 678 319 678 207 l 678 987 l 810 987 l 810 319 m 659 1061 l 554 1061 l 452 1176 l 351 1061 l 248 1061 l 248 1068 l 414 1253 l 490 1253 l 659 1067 l 659 1061 z "},"Ü":{"ha":901,"x_min":95,"x_max":810,"o":"m 95 0 m 810 319 q 762 137 810 212 q 632 24 713 62 q 452 -14 550 -14 q 268 24 349 -14 q 141 137 188 62 q 95 319 95 212 l 95 987 l 225 987 l 225 319 q 286 150 225 207 q 452 92 347 92 q 618 150 557 92 q 678 319 678 207 l 678 987 l 810 987 l 810 319 m 308 1213 q 363 1193 343 1213 q 382 1141 382 1173 q 363 1091 382 1111 q 308 1071 343 1071 q 253 1091 273 1071 q 233 1141 233 1111 q 253 1193 233 1173 q 308 1213 273 1213 m 600 1212 q 655 1192 635 1212 q 675 1140 675 1171 q 655 1089 675 1109 q 600 1069 635 1069 q 545 1089 564 1069 q 526 1140 526 1109 q 545 1192 526 1171 q 600 1212 564 1212 z "},"Ù":{"ha":901,"x_min":95,"x_max":810,"o":"m 95 0 m 810 319 q 762 137 810 212 q 632 24 713 62 q 452 -14 550 -14 q 268 24 349 -14 q 141 137 188 62 q 95 319 95 212 l 95 987 l 225 987 l 225 319 q 286 150 225 207 q 452 92 347 92 q 618 150 557 92 q 678 319 678 207 l 678 987 l 810 987 l 810 319 m 404 1054 l 229 1253 l 382 1253 l 513 1054 l 404 1054 z "},"V":{"ha":885,"x_min":20,"x_max":867,"o":"m 867 987 l 501 0 l 399 0 l 385 0 l 20 987 l 163 987 l 442 174 l 724 987 l 867 987 z "},"W":{"ha":1232,"x_min":41,"x_max":1202,"o":"m 1202 987 l 964 0 l 869 0 l 844 0 l 641 721 l 626 795 l 610 721 l 400 0 l 304 0 l 280 0 l 41 987 l 173 987 l 328 311 l 347 182 l 374 298 l 570 987 l 666 987 l 680 987 l 870 298 l 897 179 l 918 311 l 1070 987 l 1202 987 z "},"X":{"ha":871,"x_min":39,"x_max":835,"o":"m 673 987 l 827 987 l 516 498 l 835 0 l 680 0 l 437 387 l 194 0 l 39 0 l 359 498 l 46 987 l 201 987 l 437 608 l 673 987 z "},"Y":{"ha":834,"x_min":10,"x_max":822,"o":"m 673 987 l 822 987 l 482 369 l 482 0 l 350 0 l 350 369 l 10 987 l 161 987 l 416 491 l 673 987 z "},"Ý":{"ha":834,"x_min":10,"x_max":822,"o":"m 10 0 m 673 987 l 822 987 l 482 369 l 482 0 l 350 0 l 350 369 l 10 987 l 161 987 l 416 491 l 673 987 m 640 1252 l 458 1053 l 356 1053 l 488 1252 l 640 1252 z "},"Z":{"ha":832,"x_min":59,"x_max":777,"o":"m 777 106 l 777 0 l 109 0 l 59 0 l 59 97 l 600 881 l 67 881 l 67 987 l 700 987 l 755 987 l 755 893 l 213 106 l 777 106 z "},"a":{"ha":756,"x_min":74,"x_max":680,"o":"m 654 160 q 661 80 654 121 q 680 11 668 39 l 680 0 l 548 0 q 530 77 536 26 q 439 11 492 36 q 322 -14 386 -14 q 192 15 249 -14 q 105 94 136 44 q 74 203 74 143 q 114 336 74 281 q 229 417 155 390 q 404 445 303 445 l 528 445 l 528 503 q 488 609 528 570 q 374 647 448 647 q 292 631 328 647 q 236 588 256 615 q 216 530 216 562 l 90 530 q 126 634 90 584 q 229 716 163 684 q 381 747 296 747 q 524 720 463 747 q 620 637 585 692 q 654 502 654 582 l 654 160 m 340 95 q 421 110 384 95 q 486 151 459 125 q 528 205 513 176 l 528 357 l 425 357 q 258 322 316 357 q 201 221 201 288 q 217 157 201 185 q 264 112 233 128 q 340 95 296 95 z "},"á":{"ha":756,"x_min":74,"x_max":680,"o":"m 74 0 m 654 160 q 661 80 654 121 q 680 11 668 39 l 680 0 l 548 0 q 530 77 536 26 q 439 11 492 36 q 322 -14 386 -14 q 192 15 249 -14 q 105 94 136 44 q 74 203 74 143 q 114 336 74 281 q 229 417 155 390 q 404 445 303 445 l 528 445 l 528 503 q 488 609 528 570 q 374 647 448 647 q 292 631 328 647 q 236 588 256 615 q 216 530 216 562 l 90 530 q 126 634 90 584 q 229 716 163 684 q 381 747 296 747 q 524 720 463 747 q 620 637 585 692 q 654 502 654 582 l 654 160 m 340 95 q 421 110 384 95 q 486 151 459 125 q 528 205 513 176 l 528 357 l 425 357 q 258 322 316 357 q 201 221 201 288 q 217 157 201 185 q 264 112 233 128 q 340 95 296 95 m 616 1042 l 433 843 l 332 843 l 463 1042 l 616 1042 z "},"â":{"ha":756,"x_min":74,"x_max":680,"o":"m 74 0 m 654 160 q 661 80 654 121 q 680 11 668 39 l 680 0 l 548 0 q 530 77 536 26 q 439 11 492 36 q 322 -14 386 -14 q 192 15 249 -14 q 105 94 136 44 q 74 203 74 143 q 114 336 74 281 q 229 417 155 390 q 404 445 303 445 l 528 445 l 528 503 q 488 609 528 570 q 374 647 448 647 q 292 631 328 647 q 236 588 256 615 q 216 530 216 562 l 90 530 q 126 634 90 584 q 229 716 163 684 q 381 747 296 747 q 524 720 463 747 q 620 637 585 692 q 654 502 654 582 l 654 160 m 340 95 q 421 110 384 95 q 486 151 459 125 q 528 205 513 176 l 528 357 l 425 357 q 258 322 316 357 q 201 221 201 288 q 217 157 201 185 q 264 112 233 128 q 340 95 296 95 m 600 850 l 496 850 l 394 965 l 293 850 l 189 850 l 189 857 l 356 1042 l 432 1042 l 600 857 l 600 850 z "},"ä":{"ha":756,"x_min":74,"x_max":680,"o":"m 74 0 m 654 160 q 661 80 654 121 q 680 11 668 39 l 680 0 l 548 0 q 530 77 536 26 q 439 11 492 36 q 322 -14 386 -14 q 192 15 249 -14 q 105 94 136 44 q 74 203 74 143 q 114 336 74 281 q 229 417 155 390 q 404 445 303 445 l 528 445 l 528 503 q 488 609 528 570 q 374 647 448 647 q 292 631 328 647 q 236 588 256 615 q 216 530 216 562 l 90 530 q 126 634 90 584 q 229 716 163 684 q 381 747 296 747 q 524 720 463 747 q 620 637 585 692 q 654 502 654 582 l 654 160 m 340 95 q 421 110 384 95 q 486 151 459 125 q 528 205 513 176 l 528 357 l 425 357 q 258 322 316 357 q 201 221 201 288 q 217 157 201 185 q 264 112 233 128 q 340 95 296 95 m 250 1002 q 305 982 286 1002 q 325 930 325 962 q 305 880 325 900 q 250 860 286 860 q 195 880 215 860 q 176 930 176 900 q 195 982 176 962 q 250 1002 215 1002 m 542 1001 q 597 981 577 1001 q 617 929 617 960 q 597 879 617 899 q 542 859 577 859 q 487 879 507 859 q 468 929 468 899 q 487 981 468 960 q 542 1001 507 1001 z "},"à":{"ha":756,"x_min":74,"x_max":680,"o":"m 74 0 m 654 160 q 661 80 654 121 q 680 11 668 39 l 680 0 l 548 0 q 530 77 536 26 q 439 11 492 36 q 322 -14 386 -14 q 192 15 249 -14 q 105 94 136 44 q 74 203 74 143 q 114 336 74 281 q 229 417 155 390 q 404 445 303 445 l 528 445 l 528 503 q 488 609 528 570 q 374 647 448 647 q 292 631 328 647 q 236 588 256 615 q 216 530 216 562 l 90 530 q 126 634 90 584 q 229 716 163 684 q 381 747 296 747 q 524 720 463 747 q 620 637 585 692 q 654 502 654 582 l 654 160 m 340 95 q 421 110 384 95 q 486 151 459 125 q 528 205 513 176 l 528 357 l 425 357 q 258 322 316 357 q 201 221 201 288 q 217 157 201 185 q 264 112 233 128 q 340 95 296 95 m 347 843 l 171 1042 l 324 1042 l 455 843 l 347 843 z "},"å":{"ha":756,"x_min":74,"x_max":680,"o":"m 74 0 m 654 160 q 661 80 654 121 q 680 11 668 39 l 680 0 l 548 0 q 530 77 536 26 q 439 11 492 36 q 322 -14 386 -14 q 192 15 249 -14 q 105 94 136 44 q 74 203 74 143 q 114 336 74 281 q 229 417 155 390 q 404 445 303 445 l 528 445 l 528 503 q 488 609 528 570 q 374 647 448 647 q 292 631 328 647 q 236 588 256 615 q 216 530 216 562 l 90 530 q 126 634 90 584 q 229 716 163 684 q 381 747 296 747 q 524 720 463 747 q 620 637 585 692 q 654 502 654 582 l 654 160 m 340 95 q 421 110 384 95 q 486 151 459 125 q 528 205 513 176 l 528 357 l 425 357 q 258 322 316 357 q 201 221 201 288 q 217 157 201 185 q 264 112 233 128 q 340 95 296 95 m 395 1103 q 469 1085 435 1103 q 521 1034 502 1066 q 541 962 541 1001 q 521 892 541 924 q 469 843 502 861 q 395 825 435 825 q 320 843 353 825 q 268 892 287 861 q 248 962 248 924 q 268 1034 248 1001 q 320 1085 287 1066 q 395 1103 354 1103 m 395 884 q 451 908 429 884 q 473 962 473 931 q 451 1019 473 995 q 395 1043 429 1043 q 338 1019 361 1043 q 316 962 316 995 q 326 924 316 942 q 354 895 336 906 q 395 884 372 884 z "},"ã":{"ha":756,"x_min":74,"x_max":680,"o":"m 74 0 m 654 160 q 661 80 654 121 q 680 11 668 39 l 680 0 l 548 0 q 530 77 536 26 q 439 11 492 36 q 322 -14 386 -14 q 192 15 249 -14 q 105 94 136 44 q 74 203 74 143 q 114 336 74 281 q 229 417 155 390 q 404 445 303 445 l 528 445 l 528 503 q 488 609 528 570 q 374 647 448 647 q 292 631 328 647 q 236 588 256 615 q 216 530 216 562 l 90 530 q 126 634 90 584 q 229 716 163 684 q 381 747 296 747 q 524 720 463 747 q 620 637 585 692 q 654 502 654 582 l 654 160 m 340 95 q 421 110 384 95 q 486 151 459 125 q 528 205 513 176 l 528 357 l 425 357 q 258 322 316 357 q 201 221 201 288 q 217 157 201 185 q 264 112 233 128 q 340 95 296 95 m 635 1020 q 615 935 635 972 q 563 877 596 897 q 488 857 529 857 q 435 865 456 857 q 388 891 413 874 q 349 913 366 906 q 307 921 331 921 q 259 899 278 921 q 239 845 239 877 l 155 850 q 174 936 155 898 q 227 995 193 974 q 300 1017 260 1017 q 347 1008 326 1017 q 395 983 367 1000 q 440 959 421 967 q 482 951 459 951 q 530 974 511 951 q 550 1028 550 996 l 635 1020 z "},"æ":{"ha":1173,"x_min":53,"x_max":1126,"o":"m 1126 338 l 633 338 q 660 210 635 266 q 734 121 685 153 q 857 88 783 88 q 945 99 906 88 q 1011 124 985 110 q 1070 161 1037 138 l 1114 69 q 1014 12 1077 39 q 857 -14 951 -14 q 699 18 768 -14 q 587 108 631 50 q 473 21 547 56 q 294 -14 399 -14 q 163 13 218 -14 q 81 90 109 40 q 53 206 53 139 q 131 372 53 314 q 357 431 209 431 l 507 431 l 507 488 q 470 604 507 562 q 363 646 433 646 q 277 628 315 646 q 219 581 239 610 q 198 515 198 551 l 72 528 q 109 641 72 591 q 212 719 145 690 q 363 747 278 747 q 502 719 442 747 q 594 635 562 690 q 697 719 637 689 q 826 747 757 748 q 990 707 922 747 q 1092 593 1057 667 q 1126 418 1126 519 l 1126 338 m 1000 455 q 958 592 1000 539 q 826 646 916 646 q 733 618 773 646 q 668 544 693 591 q 636 434 644 496 l 1000 434 l 1000 455 m 319 87 q 421 113 368 87 q 507 174 474 139 l 507 337 l 359 337 q 261 319 302 337 q 200 270 221 300 q 180 203 180 239 q 215 120 180 152 q 319 87 250 87 z "},"b":{"ha":780,"x_min":95,"x_max":717,"o":"m 431 747 q 585 701 521 747 q 683 570 650 654 q 717 373 717 486 l 717 359 q 683 166 717 251 q 585 34 650 82 q 432 -14 521 -14 q 217 83 293 -14 l 211 0 l 95 0 l 95 1042 l 222 1042 l 222 655 q 431 747 297 747 m 590 373 q 544 568 590 494 q 399 642 498 642 q 291 611 334 642 q 222 528 247 581 l 222 207 q 292 123 248 155 q 400 92 336 92 q 543 166 496 92 q 590 359 590 241 l 590 373 z "},"c":{"ha":728,"x_min":62,"x_max":682,"o":"m 682 232 q 638 111 679 168 q 531 20 597 54 q 389 -14 465 -14 q 209 36 283 -14 q 99 168 136 85 q 62 353 62 251 l 62 381 q 99 566 62 483 q 209 698 136 649 q 389 747 283 747 q 539 713 473 747 q 642 617 604 678 q 682 481 679 557 l 562 481 q 536 565 559 527 q 476 624 514 602 q 389 646 438 646 q 272 608 317 646 q 208 511 227 570 q 189 381 189 452 l 189 353 q 236 164 189 240 q 389 88 282 88 q 472 107 433 88 q 534 158 510 125 q 562 232 559 191 l 682 232 z "},"ç":{"ha":728,"x_min":62,"x_max":682,"o":"m 389 88 q 472 107 433 88 q 534 158 510 125 q 562 232 559 191 l 682 232 q 641 115 679 170 q 542 26 604 60 q 409 -13 481 -9 l 402 -43 q 477 -78 448 -50 q 506 -160 506 -106 q 452 -263 506 -225 q 300 -302 399 -302 l 295 -230 q 376 -213 345 -230 q 408 -163 408 -197 q 396 -127 408 -140 q 362 -108 385 -114 q 298 -98 339 -102 l 319 -7 q 178 60 235 8 q 91 187 120 111 q 62 353 62 263 l 62 381 q 99 566 62 483 q 209 698 136 649 q 389 747 283 747 q 539 713 473 747 q 642 617 604 678 q 682 481 679 557 l 562 481 q 536 565 559 527 q 476 624 514 602 q 389 646 438 646 q 272 608 317 646 q 208 511 227 570 q 189 381 189 452 l 189 353 q 236 164 189 240 q 389 88 282 88 z "},"d":{"ha":784,"x_min":64,"x_max":684,"o":"m 684 1042 l 684 0 l 568 0 l 562 78 q 353 -14 488 -14 q 203 35 269 -14 q 101 168 137 83 q 64 359 64 252 l 64 373 q 100 569 64 484 q 202 701 136 654 q 355 747 268 747 q 557 661 484 747 l 557 1042 l 684 1042 m 385 92 q 557 199 502 92 l 557 538 q 489 614 532 587 q 386 642 447 642 q 276 607 320 642 q 212 510 233 571 q 191 373 191 449 l 191 359 q 212 223 191 283 q 276 127 233 163 q 385 92 319 92 z "},"ð":{"ha":814,"x_min":85,"x_max":726,"o":"m 556 884 q 682 682 638 797 q 726 429 726 567 l 726 363 q 685 167 726 253 q 572 34 644 81 q 408 -14 499 -14 q 241 31 315 -14 q 126 150 168 75 q 85 317 85 226 q 125 498 85 420 q 233 620 164 577 q 389 663 302 663 q 494 643 444 663 q 581 587 543 622 q 453 814 547 722 l 306 714 l 256 781 l 387 869 q 172 964 296 932 l 212 1072 q 492 941 374 1035 l 621 1028 l 670 961 l 556 884 m 599 431 q 598 469 599 457 q 531 535 576 509 q 419 561 485 561 q 308 531 354 561 q 237 447 261 502 q 212 317 212 392 q 236 207 212 260 q 305 122 260 155 q 411 89 350 89 q 510 124 468 89 q 576 222 553 160 q 599 363 599 284 l 599 431 z "},"e":{"ha":737,"x_min":63,"x_max":686,"o":"m 686 332 l 190 332 q 218 208 192 264 q 293 120 245 153 q 407 88 342 88 q 517 114 471 88 q 600 188 564 140 l 677 128 q 568 26 636 66 q 400 -14 500 -14 q 223 32 300 -14 q 105 158 146 77 q 63 341 63 239 l 63 370 q 108 571 63 485 q 226 702 153 656 q 384 747 300 747 q 554 702 486 747 q 654 575 621 656 q 686 389 686 494 l 686 332 m 559 444 q 513 588 554 530 q 384 646 472 646 q 257 590 308 646 q 194 434 207 535 l 559 434 l 559 444 z "},"é":{"ha":737,"x_min":63,"x_max":686,"o":"m 63 0 m 686 332 l 190 332 q 218 208 192 264 q 293 120 245 153 q 407 88 342 88 q 517 114 471 88 q 600 188 564 140 l 677 128 q 568 26 636 66 q 400 -14 500 -14 q 223 32 300 -14 q 105 158 146 77 q 63 341 63 239 l 63 370 q 108 571 63 485 q 226 702 153 656 q 384 747 300 747 q 554 702 486 747 q 654 575 621 656 q 686 389 686 494 l 686 332 m 559 444 q 513 588 554 530 q 384 646 472 646 q 257 590 308 646 q 194 434 207 535 l 559 434 l 559 444 m 604 1042 l 422 843 l 320 843 l 452 1042 l 604 1042 z "},"ê":{"ha":737,"x_min":63,"x_max":686,"o":"m 63 0 m 686 332 l 190 332 q 218 208 192 264 q 293 120 245 153 q 407 88 342 88 q 517 114 471 88 q 600 188 564 140 l 677 128 q 568 26 636 66 q 400 -14 500 -14 q 223 32 300 -14 q 105 158 146 77 q 63 341 63 239 l 63 370 q 108 571 63 485 q 226 702 153 656 q 384 747 300 747 q 554 702 486 747 q 654 575 621 656 q 686 389 686 494 l 686 332 m 559 444 q 513 588 554 530 q 384 646 472 646 q 257 590 308 646 q 194 434 207 535 l 559 434 l 559 444 m 589 850 l 485 850 l 383 965 l 282 850 l 178 850 l 178 857 l 345 1042 l 421 1042 l 589 857 l 589 850 z "},"ë":{"ha":737,"x_min":63,"x_max":686,"o":"m 63 0 m 686 332 l 190 332 q 218 208 192 264 q 293 120 245 153 q 407 88 342 88 q 517 114 471 88 q 600 188 564 140 l 677 128 q 568 26 636 66 q 400 -14 500 -14 q 223 32 300 -14 q 105 158 146 77 q 63 341 63 239 l 63 370 q 108 571 63 485 q 226 702 153 656 q 384 747 300 747 q 554 702 486 747 q 654 575 621 656 q 686 389 686 494 l 686 332 m 559 444 q 513 588 554 530 q 384 646 472 646 q 257 590 308 646 q 194 434 207 535 l 559 434 l 559 444 m 239 1002 q 294 982 274 1002 q 313 930 313 962 q 294 880 313 900 q 239 860 274 860 q 184 880 203 860 q 164 930 164 900 q 184 982 164 962 q 239 1002 203 1002 m 530 1001 q 586 981 566 1001 q 606 929 606 960 q 586 879 606 899 q 530 859 566 859 q 476 879 495 859 q 456 929 456 899 q 476 981 456 960 q 530 1001 495 1001 z "},"è":{"ha":737,"x_min":63,"x_max":686,"o":"m 63 0 m 686 332 l 190 332 q 218 208 192 264 q 293 120 245 153 q 407 88 342 88 q 517 114 471 88 q 600 188 564 140 l 677 128 q 568 26 636 66 q 400 -14 500 -14 q 223 32 300 -14 q 105 158 146 77 q 63 341 63 239 l 63 370 q 108 571 63 485 q 226 702 153 656 q 384 747 300 747 q 554 702 486 747 q 654 575 621 656 q 686 389 686 494 l 686 332 m 559 444 q 513 588 554 530 q 384 646 472 646 q 257 590 308 646 q 194 434 207 535 l 559 434 l 559 444 m 336 843 l 160 1042 l 313 1042 l 444 843 l 336 843 z "},"f":{"ha":483,"x_min":41,"x_max":485,"o":"m 410 949 q 317 914 350 949 q 283 812 283 878 l 283 734 l 439 734 l 439 638 l 283 638 l 283 0 l 157 0 l 157 638 l 41 638 l 41 734 l 157 734 l 157 812 q 221 992 157 929 q 399 1056 285 1056 q 485 1045 440 1056 l 478 944 q 410 949 448 949 z "},"g":{"ha":780,"x_min":65,"x_max":686,"o":"m 686 734 l 686 16 q 646 -149 686 -80 q 537 -254 607 -218 q 374 -290 467 -290 q 281 -277 332 -290 q 181 -235 230 -264 q 102 -162 133 -207 l 168 -88 q 365 -188 250 -188 q 507 -137 455 -188 q 559 9 559 -85 l 559 73 q 354 -14 484 -14 q 202 35 267 -14 q 101 167 136 83 q 65 359 65 252 l 65 373 q 100 569 65 484 q 201 701 136 654 q 355 747 267 747 q 565 653 490 747 l 570 734 l 686 734 m 385 92 q 559 200 503 92 l 559 537 q 490 614 533 586 q 387 642 448 642 q 277 607 321 642 q 213 510 233 571 q 192 373 192 449 l 192 359 q 213 223 192 283 q 277 127 233 163 q 385 92 320 92 z "},"h":{"ha":765,"x_min":95,"x_max":673,"o":"m 437 747 q 673 481 673 747 l 673 0 l 546 0 l 546 482 q 510 604 546 566 q 400 642 473 642 q 295 610 342 642 q 222 525 249 578 l 222 0 l 95 0 l 95 1042 l 222 1042 l 222 647 q 317 721 262 695 q 437 747 372 747 z "},"i":{"ha":338,"x_min":96,"x_max":245,"o":"m 170 1001 q 225 981 205 1001 q 245 929 245 960 q 225 879 245 899 q 170 859 205 859 q 116 879 135 859 q 96 929 96 899 q 116 981 96 960 q 170 1001 135 1001 m 106 0 l 106 734 l 233 734 l 233 0 l 106 0 z "},"ı":{"ha":345,"x_min":106,"x_max":232,"o":"m 106 0 l 106 734 l 232 734 l 232 0 l 106 0 z "},"í":{"ha":345,"x_min":106,"x_max":393,"o":"m 106 0 m 106 0 l 106 734 l 232 734 l 232 0 l 106 0 m 393 1040 l 210 842 l 109 842 l 240 1040 l 393 1040 z "},"î":{"ha":345,"x_min":-33,"x_max":378,"o":"m 0 0 m 106 0 l 106 734 l 232 734 l 232 0 l 106 0 m 378 848 l 273 848 l 172 964 l 71 848 l -33 848 l -33 856 l 134 1040 l 210 1040 l 378 855 l 378 848 z "},"ï":{"ha":345,"x_min":-47,"x_max":394,"o":"m 0 0 m 106 0 l 106 734 l 232 734 l 232 0 l 106 0 m 27 1001 q 82 981 62 1001 q 102 929 102 960 q 82 879 102 899 q 27 859 62 859 q -28 879 -8 859 q -47 929 -47 899 q -28 981 -47 960 q 27 1001 -8 1001 m 319 1000 q 374 979 354 1000 q 394 928 394 959 q 374 877 394 897 q 319 857 354 857 q 264 877 283 857 q 245 928 245 897 q 264 979 245 959 q 319 1000 283 1000 z "},"ì":{"ha":345,"x_min":-52,"x_max":232,"o":"m 0 0 m 106 0 l 106 734 l 232 734 l 232 0 l 106 0 m 123 842 l -52 1040 l 101 1040 l 232 842 l 123 842 z "},"j":{"ha":333,"x_min":-44,"x_max":235,"o":"m 160 1001 q 215 981 195 1001 q 235 929 235 960 q 215 879 235 899 q 160 859 195 859 q 105 879 125 859 q 86 929 86 899 q 105 981 86 960 q 160 1001 125 1001 m 226 -87 q 178 -243 226 -190 q 34 -296 130 -296 q -6 -293 16 -296 q -44 -285 -28 -290 l -43 -184 q 14 -191 -18 -191 q 78 -166 56 -191 q 99 -87 99 -142 l 99 734 l 226 734 l 226 -87 z "},"k":{"ha":705,"x_min":96,"x_max":704,"o":"m 301 340 l 222 259 l 222 0 l 96 0 l 96 1042 l 222 1042 l 222 412 l 290 492 l 516 734 l 670 734 l 385 428 l 704 0 l 555 0 l 301 340 z "},"l":{"ha":338,"x_min":106,"x_max":233,"o":"m 106 0 l 106 1042 l 233 1042 l 233 0 l 106 0 z "},"m":{"ha":1217,"x_min":94,"x_max":1123,"o":"m 878 747 q 1061 683 998 747 q 1123 482 1123 618 l 1123 0 l 996 0 l 996 484 q 957 607 996 571 q 840 642 917 642 q 755 622 791 642 q 697 566 718 601 q 672 486 677 530 l 672 0 l 545 0 l 545 483 q 389 642 545 642 q 284 615 326 642 q 221 538 243 587 l 221 0 l 94 0 l 94 734 l 214 734 l 218 654 q 311 723 256 699 q 435 747 365 747 q 562 719 507 747 q 644 631 616 690 q 742 716 682 685 q 878 747 801 747 z "},"n":{"ha":767,"x_min":95,"x_max":673,"o":"m 437 747 q 673 481 673 747 l 673 0 l 546 0 l 546 482 q 510 604 546 566 q 400 642 473 642 q 295 610 342 642 q 222 525 249 578 l 222 0 l 95 0 l 95 734 l 215 734 l 219 644 q 315 720 259 693 q 437 747 370 747 z "},"ñ":{"ha":767,"x_min":95,"x_max":673,"o":"m 95 0 m 437 747 q 673 481 673 747 l 673 0 l 546 0 l 546 482 q 510 604 546 566 q 400 642 473 642 q 295 610 342 642 q 222 525 249 578 l 222 0 l 95 0 l 95 734 l 215 734 l 219 644 q 315 720 259 693 q 437 747 370 747 m 629 1020 q 609 935 629 972 q 556 877 590 897 q 482 857 523 857 q 429 865 450 857 q 382 891 407 874 q 342 913 360 906 q 301 921 325 921 q 253 899 272 921 q 233 845 233 877 l 149 850 q 168 936 149 898 q 220 995 187 974 q 294 1017 254 1017 q 340 1008 320 1017 q 389 983 361 1000 q 434 959 415 967 q 476 951 453 951 q 524 974 505 951 q 544 1028 544 996 l 629 1020 z "},"o":{"ha":793,"x_min":62,"x_max":730,"o":"m 62 374 q 103 566 62 481 q 219 699 144 650 q 395 747 295 747 q 573 699 497 747 q 690 566 649 650 q 730 374 730 481 l 730 359 q 690 168 730 252 q 573 35 649 83 q 397 -14 498 -14 q 220 35 296 -14 q 103 168 144 83 q 62 359 62 252 l 62 374 m 189 359 q 213 222 189 284 q 283 124 236 161 q 397 88 330 88 q 510 124 463 88 q 580 222 557 161 q 604 359 604 284 l 604 374 q 580 511 604 449 q 509 609 556 572 q 395 646 463 646 q 282 609 329 646 q 213 511 236 572 q 189 374 189 449 l 189 359 z "},"ó":{"ha":793,"x_min":62,"x_max":730,"o":"m 62 0 m 62 374 q 103 566 62 481 q 219 699 144 650 q 395 747 295 747 q 573 699 497 747 q 690 566 649 650 q 730 374 730 481 l 730 359 q 690 168 730 252 q 573 35 649 83 q 397 -14 498 -14 q 220 35 296 -14 q 103 168 144 83 q 62 359 62 252 l 62 374 m 189 359 q 213 222 189 284 q 283 124 236 161 q 397 88 330 88 q 510 124 463 88 q 580 222 557 161 q 604 359 604 284 l 604 374 q 580 511 604 449 q 509 609 556 572 q 395 646 463 646 q 282 609 329 646 q 213 511 236 572 q 189 374 189 449 l 189 359 m 611 1042 l 429 843 l 327 843 l 458 1042 l 611 1042 z "},"ô":{"ha":793,"x_min":62,"x_max":730,"o":"m 62 0 m 62 374 q 103 566 62 481 q 219 699 144 650 q 395 747 295 747 q 573 699 497 747 q 690 566 649 650 q 730 374 730 481 l 730 359 q 690 168 730 252 q 573 35 649 83 q 397 -14 498 -14 q 220 35 296 -14 q 103 168 144 83 q 62 359 62 252 l 62 374 m 189 359 q 213 222 189 284 q 283 124 236 161 q 397 88 330 88 q 510 124 463 88 q 580 222 557 161 q 604 359 604 284 l 604 374 q 580 511 604 449 q 509 609 556 572 q 395 646 463 646 q 282 609 329 646 q 213 511 236 572 q 189 374 189 449 l 189 359 m 596 850 l 492 850 l 390 965 l 289 850 l 185 850 l 185 857 l 352 1042 l 428 1042 l 596 857 l 596 850 z "},"ö":{"ha":793,"x_min":62,"x_max":730,"o":"m 62 0 m 62 374 q 103 566 62 481 q 219 699 144 650 q 395 747 295 747 q 573 699 497 747 q 690 566 649 650 q 730 374 730 481 l 730 359 q 690 168 730 252 q 573 35 649 83 q 397 -14 498 -14 q 220 35 296 -14 q 103 168 144 83 q 62 359 62 252 l 62 374 m 189 359 q 213 222 189 284 q 283 124 236 161 q 397 88 330 88 q 510 124 463 88 q 580 222 557 161 q 604 359 604 284 l 604 374 q 580 511 604 449 q 509 609 556 572 q 395 646 463 646 q 282 609 329 646 q 213 511 236 572 q 189 374 189 449 l 189 359 m 245 1002 q 300 982 281 1002 q 320 930 320 962 q 300 880 320 900 q 245 860 281 860 q 191 880 210 860 q 171 930 171 900 q 191 982 171 962 q 245 1002 210 1002 m 537 1001 q 592 981 572 1001 q 612 929 612 960 q 592 879 612 899 q 537 859 572 859 q 483 879 502 859 q 463 929 463 899 q 483 981 463 960 q 537 1001 502 1001 z "},"ò":{"ha":793,"x_min":62,"x_max":730,"o":"m 62 0 m 62 374 q 103 566 62 481 q 219 699 144 650 q 395 747 295 747 q 573 699 497 747 q 690 566 649 650 q 730 374 730 481 l 730 359 q 690 168 730 252 q 573 35 649 83 q 397 -14 498 -14 q 220 35 296 -14 q 103 168 144 83 q 62 359 62 252 l 62 374 m 189 359 q 213 222 189 284 q 283 124 236 161 q 397 88 330 88 q 510 124 463 88 q 580 222 557 161 q 604 359 604 284 l 604 374 q 580 511 604 449 q 509 609 556 572 q 395 646 463 646 q 282 609 329 646 q 213 511 236 572 q 189 374 189 449 l 189 359 m 342 843 l 167 1042 l 320 1042 l 451 843 l 342 843 z "},"ø":{"ha":787,"x_min":62,"x_max":730,"o":"m 599 681 q 696 551 662 631 q 730 374 730 471 l 730 359 q 690 168 730 252 q 573 35 649 83 q 397 -14 498 -14 q 268 10 327 -14 l 218 -92 l 134 -92 l 202 47 q 99 178 136 96 q 62 359 62 259 l 62 374 q 103 566 62 481 q 219 699 144 650 q 395 747 295 747 q 534 720 472 747 l 583 820 l 667 820 l 599 681 m 189 359 q 205 243 189 296 q 254 152 222 189 l 486 624 q 395 646 445 646 q 282 609 329 646 q 212 510 236 572 q 189 374 189 448 l 189 359 m 604 374 q 589 484 604 433 q 545 573 574 535 l 315 105 q 397 88 352 88 q 510 124 463 88 q 580 222 557 161 q 604 359 604 284 l 604 374 z "},"õ":{"ha":793,"x_min":62,"x_max":730,"o":"m 62 0 m 62 374 q 103 566 62 481 q 219 699 144 650 q 395 747 295 747 q 573 699 497 747 q 690 566 649 650 q 730 374 730 481 l 730 359 q 690 168 730 252 q 573 35 649 83 q 397 -14 498 -14 q 220 35 296 -14 q 103 168 144 83 q 62 359 62 252 l 62 374 m 189 359 q 213 222 189 284 q 283 124 236 161 q 397 88 330 88 q 510 124 463 88 q 580 222 557 161 q 604 359 604 284 l 604 374 q 580 511 604 449 q 509 609 556 572 q 395 646 463 646 q 282 609 329 646 q 213 511 236 572 q 189 374 189 449 l 189 359 m 631 1020 q 611 935 631 972 q 558 877 592 897 q 484 857 525 857 q 431 865 452 857 q 384 891 409 874 q 345 913 362 906 q 303 921 327 921 q 255 899 274 921 q 235 845 235 877 l 151 850 q 170 936 151 898 q 222 995 189 974 q 296 1017 256 1017 q 342 1008 322 1017 q 391 983 363 1000 q 436 959 417 967 q 478 951 455 951 q 526 974 507 951 q 546 1028 546 996 l 631 1020 z "},"œ":{"ha":1261,"x_min":66,"x_max":1215,"o":"m 1215 338 l 729 338 q 756 211 732 267 q 825 121 780 154 q 935 88 871 88 q 1144 161 1063 88 l 1194 77 q 1090 12 1155 38 q 935 -14 1026 -14 q 775 23 846 -14 q 662 130 705 61 q 552 23 620 61 q 395 -14 484 -14 q 220 34 294 -14 q 105 168 145 83 q 66 359 66 252 l 66 374 q 105 566 66 481 q 219 699 145 650 q 393 747 293 747 q 552 709 483 747 q 663 602 621 671 q 774 709 707 670 q 916 747 841 748 q 1081 706 1014 747 q 1181 592 1148 665 q 1215 420 1215 518 l 1215 338 m 595 374 q 573 511 595 449 q 506 609 551 572 q 393 646 460 646 q 282 609 327 646 q 215 511 237 572 q 193 374 193 449 l 193 359 q 215 222 193 283 q 282 124 237 161 q 395 88 328 88 q 506 124 461 88 q 573 222 551 161 q 595 359 595 283 l 595 374 m 1088 458 q 1069 552 1088 509 q 1011 620 1050 595 q 916 646 972 646 q 831 619 869 646 q 767 546 793 592 q 733 440 742 499 l 1088 440 l 1088 458 z "},"p":{"ha":780,"x_min":95,"x_max":715,"o":"m 429 747 q 585 701 520 747 q 682 570 649 654 q 715 373 715 486 l 715 359 q 682 166 715 251 q 584 34 648 82 q 431 -14 520 -14 q 222 71 298 -14 l 222 -282 l 95 -282 l 95 734 l 210 734 l 217 654 q 429 747 294 747 m 589 373 q 567 510 589 449 q 502 606 546 570 q 391 642 457 642 q 290 615 332 642 q 222 541 248 588 l 222 188 q 393 88 278 88 q 502 124 458 88 q 567 222 546 161 q 589 359 589 283 l 589 373 z "},"þ":{"ha":801,"x_min":101,"x_max":722,"o":"m 435 747 q 591 701 526 747 q 689 570 655 654 q 722 373 722 486 l 722 359 q 689 166 722 251 q 591 34 655 82 q 437 -14 526 -14 q 228 71 304 -14 l 228 -282 l 101 -282 l 101 1042 l 228 1042 l 228 660 q 435 747 304 747 m 595 373 q 574 510 595 449 q 508 606 553 570 q 398 642 464 642 q 296 615 338 642 q 228 541 254 588 l 228 188 q 399 88 284 88 q 509 124 465 88 q 574 222 553 161 q 595 359 595 283 l 595 373 z "},"q":{"ha":790,"x_min":64,"x_max":684,"o":"m 684 734 l 684 -282 l 557 -282 l 557 66 q 355 -14 482 -14 q 201 34 267 -14 q 100 167 135 82 q 64 359 64 252 l 64 373 q 99 570 64 485 q 200 701 134 654 q 357 747 267 747 q 562 661 486 747 l 568 734 l 684 734 m 387 88 q 557 187 498 88 l 557 549 q 488 620 530 593 q 389 646 446 646 q 278 609 323 646 q 213 511 234 572 q 191 373 191 449 l 191 359 q 213 222 191 283 q 278 124 234 161 q 387 88 322 88 z "},"r":{"ha":471,"x_min":95,"x_max":450,"o":"m 395 747 q 425 744 407 747 q 450 738 444 741 l 450 622 q 389 627 421 627 q 284 600 326 627 q 222 522 243 572 l 222 0 l 95 0 l 95 734 l 218 734 l 221 650 q 293 722 250 696 q 395 747 336 747 z "},"s":{"ha":717,"x_min":64,"x_max":649,"o":"m 354 322 q 156 398 223 349 q 90 533 90 447 q 123 640 90 591 q 219 718 157 689 q 361 747 281 747 q 511 717 447 747 q 608 634 574 686 q 642 519 642 583 l 515 519 q 496 579 515 550 q 443 627 478 608 q 361 646 408 646 q 279 630 312 646 q 232 590 247 615 q 216 537 216 566 q 230 489 216 508 q 280 454 244 469 q 385 423 317 438 q 535 374 477 402 q 621 304 593 345 q 649 203 649 262 q 614 91 649 140 q 514 14 578 41 q 365 -14 450 -14 q 203 20 271 -14 q 100 109 135 54 q 64 226 64 163 l 191 226 q 220 146 194 177 q 284 102 245 115 q 365 88 322 88 q 450 102 414 88 q 504 140 486 116 q 522 195 522 164 q 509 248 522 225 q 460 289 496 270 q 354 322 423 308 z "},"ß":{"ha":826,"x_min":94,"x_max":767,"o":"m 94 0 l 94 754 q 127 919 94 851 q 221 1020 161 986 q 361 1054 281 1054 q 495 1029 437 1054 q 585 952 552 1004 q 617 825 617 901 q 610 759 617 788 q 593 708 603 729 q 567 659 583 687 q 539 606 548 628 q 530 556 530 584 q 544 506 530 530 q 578 464 557 483 q 633 416 599 444 q 703 356 677 382 q 748 295 730 330 q 767 215 767 259 q 734 89 767 140 q 642 12 701 37 q 506 -14 583 -14 q 390 1 450 -14 q 303 36 330 16 l 332 140 q 406 104 362 121 q 492 88 450 88 q 604 121 568 88 q 640 209 640 155 q 627 260 640 237 q 593 303 613 283 q 538 350 572 322 q 468 411 494 385 q 423 474 441 437 q 404 557 404 511 q 416 623 404 594 q 452 689 428 652 q 486 753 475 726 q 498 815 498 781 q 462 917 498 881 q 368 952 426 952 q 259 903 297 952 q 220 754 220 854 l 220 0 l 94 0 z "},"ſ":{"ha":345,"x_min":109,"x_max":436,"o":"m 109 812 q 170 992 109 928 q 339 1056 231 1056 q 436 1042 379 1056 l 420 946 q 359 954 393 954 q 267 917 299 954 q 235 812 235 879 l 235 0 l 109 0 l 109 812 z "},"t":{"ha":454,"x_min":6,"x_max":406,"o":"m 406 0 q 309 -14 363 -14 q 186 33 233 -14 q 140 182 140 79 l 140 638 l 6 638 l 6 734 l 140 734 l 140 912 l 267 912 l 267 734 l 404 734 l 404 638 l 267 638 l 267 182 q 288 112 267 130 q 347 94 310 94 q 378 96 361 94 q 406 101 395 98 l 406 0 z "},"u":{"ha":766,"x_min":92,"x_max":671,"o":"m 671 734 l 671 0 l 550 0 l 548 73 q 333 -14 475 -14 q 156 53 220 -14 q 92 260 92 119 l 92 734 l 219 734 l 219 259 q 257 130 219 168 q 353 92 294 92 q 544 199 496 92 l 544 734 l 671 734 z "},"ú":{"ha":766,"x_min":92,"x_max":671,"o":"m 92 0 m 671 734 l 671 0 l 550 0 l 548 73 q 333 -14 475 -14 q 156 53 220 -14 q 92 260 92 119 l 92 734 l 219 734 l 219 259 q 257 130 219 168 q 353 92 294 92 q 544 199 496 92 l 544 734 l 671 734 m 606 1042 l 423 843 l 321 843 l 453 1042 l 606 1042 z "},"û":{"ha":766,"x_min":92,"x_max":671,"o":"m 92 0 m 671 734 l 671 0 l 550 0 l 548 73 q 333 -14 475 -14 q 156 53 220 -14 q 92 260 92 119 l 92 734 l 219 734 l 219 259 q 257 130 219 168 q 353 92 294 92 q 544 199 496 92 l 544 734 l 671 734 m 591 850 l 486 850 l 385 965 l 283 850 l 180 850 l 180 857 l 347 1042 l 422 1042 l 591 857 l 591 850 z "},"ü":{"ha":766,"x_min":92,"x_max":671,"o":"m 92 0 m 671 734 l 671 0 l 550 0 l 548 73 q 333 -14 475 -14 q 156 53 220 -14 q 92 260 92 119 l 92 734 l 219 734 l 219 259 q 257 130 219 168 q 353 92 294 92 q 544 199 496 92 l 544 734 l 671 734 m 241 1002 q 296 982 276 1002 q 315 930 315 962 q 296 880 315 900 q 241 860 276 860 q 186 880 205 860 q 166 930 166 900 q 186 982 166 962 q 241 1002 205 1002 m 532 1001 q 588 981 568 1001 q 608 929 608 960 q 588 879 608 899 q 532 859 568 859 q 478 879 497 859 q 458 929 458 899 q 478 981 458 960 q 532 1001 497 1001 z "},"ù":{"ha":766,"x_min":92,"x_max":671,"o":"m 92 0 m 671 734 l 671 0 l 550 0 l 548 73 q 333 -14 475 -14 q 156 53 220 -14 q 92 260 92 119 l 92 734 l 219 734 l 219 259 q 257 130 219 168 q 353 92 294 92 q 544 199 496 92 l 544 734 l 671 734 m 337 843 l 161 1042 l 315 1042 l 446 843 l 337 843 z "},"v":{"ha":673,"x_min":22,"x_max":648,"o":"m 648 734 l 385 0 l 299 0 l 288 0 l 22 734 l 152 734 l 338 172 l 518 734 l 648 734 z "},"w":{"ha":1044,"x_min":29,"x_max":1011,"o":"m 1011 734 l 798 0 l 714 0 l 696 0 l 518 554 l 345 0 l 264 0 l 242 0 l 29 734 l 155 734 l 299 189 l 469 734 l 553 734 l 572 734 l 745 177 l 886 734 l 1011 734 z "},"x":{"ha":689,"x_min":28,"x_max":659,"o":"m 503 734 l 651 734 l 412 372 l 659 0 l 513 0 l 344 276 l 176 0 l 28 0 l 275 372 l 35 734 l 182 734 l 342 466 l 503 734 z "},"y":{"ha":657,"x_min":15,"x_max":640,"o":"m 640 734 l 346 -113 q 268 -242 319 -187 q 128 -296 216 -296 q 91 -293 114 -296 q 57 -286 68 -289 l 57 -184 q 74 -187 64 -186 q 91 -188 83 -188 q 191 -161 155 -188 q 249 -67 227 -134 l 277 8 l 15 734 l 153 734 l 335 184 l 505 734 l 640 734 z "},"ý":{"ha":657,"x_min":15,"x_max":640,"o":"m 15 0 m 640 734 l 346 -113 q 268 -242 319 -187 q 128 -296 216 -296 q 91 -293 114 -296 q 57 -286 68 -289 l 57 -184 q 74 -187 64 -186 q 91 -188 83 -188 q 191 -161 155 -188 q 249 -67 227 -134 l 277 8 l 15 734 l 153 734 l 335 184 l 505 734 l 640 734 m 566 1042 l 383 843 l 281 843 l 413 1042 l 566 1042 z "},"ÿ":{"ha":657,"x_min":15,"x_max":640,"o":"m 15 0 m 640 734 l 346 -113 q 268 -242 319 -187 q 128 -296 216 -296 q 91 -293 114 -296 q 57 -286 68 -289 l 57 -184 q 74 -187 64 -186 q 91 -188 83 -188 q 191 -161 155 -188 q 249 -67 227 -134 l 277 8 l 15 734 l 153 734 l 335 184 l 505 734 l 640 734 m 200 1002 q 255 982 235 1002 q 275 930 275 962 q 255 880 275 900 q 200 860 235 860 q 145 880 165 860 q 125 930 125 900 q 145 982 125 962 q 200 1002 165 1002 m 492 1001 q 547 981 527 1001 q 567 929 567 960 q 547 879 567 899 q 492 859 527 859 q 437 879 456 859 q 418 929 418 899 q 437 981 418 960 q 492 1001 456 1001 z "},"z":{"ha":689,"x_min":60,"x_max":642,"o":"m 642 102 l 642 0 l 109 0 l 60 0 l 60 92 l 465 631 l 66 631 l 66 734 l 567 734 l 623 734 l 623 646 l 214 102 l 642 102 z "},"ﬁ":{"ha":770,"x_min":21,"x_max":661,"o":"m 416 944 q 300 908 336 944 q 264 798 264 873 l 264 734 l 413 734 l 413 638 l 264 638 l 264 0 l 137 0 l 137 638 l 21 638 l 21 734 l 137 734 l 137 798 q 169 938 137 880 q 262 1026 201 996 q 406 1056 323 1056 q 497 1045 452 1056 q 598 1015 542 1035 l 577 910 q 416 944 492 944 m 661 734 l 661 0 l 534 0 l 534 734 l 661 734 z "},"ª":{"ha":621,"x_min":100,"x_max":532,"o":"m 419 479 q 408 528 411 505 q 349 486 384 502 q 269 469 314 469 q 144 511 189 469 q 100 623 100 552 q 158 739 100 699 q 330 779 216 779 l 403 779 l 403 815 q 382 883 403 860 q 319 907 361 907 q 246 888 272 907 q 220 835 220 869 l 110 844 q 136 925 110 889 q 210 981 162 961 q 319 1002 257 1002 q 461 954 409 1002 q 514 814 514 905 l 514 602 q 532 479 514 536 l 419 479 m 295 562 q 354 575 323 562 q 403 608 384 588 l 403 704 l 330 704 q 241 682 271 704 q 211 625 211 660 q 232 578 211 595 q 295 562 253 562 z "},"º":{"ha":632,"x_min":83,"x_max":548,"o":"m 83 762 q 112 886 83 832 q 193 971 140 941 q 315 1002 245 1002 q 438 971 386 1002 q 519 886 491 941 q 548 762 548 832 l 548 707 q 520 583 548 637 q 439 499 492 529 q 317 469 387 469 q 193 499 246 469 q 112 583 140 529 q 83 707 83 637 l 83 762 m 195 707 q 225 602 195 642 q 317 562 256 562 q 406 602 375 562 q 437 707 437 642 l 437 762 q 406 867 437 827 q 315 907 374 907 q 225 866 256 907 q 195 762 195 826 l 195 707 z "},"α":{"ha":785,"x_min":68,"x_max":776,"o":"m 776 9 q 736 -9 756 -5 q 692 -14 717 -14 q 567 97 593 -14 q 353 -14 494 -14 q 200 31 264 -14 q 102 156 136 75 q 68 340 68 236 l 68 354 q 101 559 68 471 q 200 698 135 648 q 355 747 264 747 q 564 640 492 747 l 576 734 l 683 734 l 683 200 q 697 120 683 142 q 737 98 712 98 q 760 101 745 98 l 776 9 m 385 87 q 488 121 446 87 q 556 213 530 154 l 556 518 q 386 646 499 646 q 242 564 289 646 q 195 354 195 482 l 195 340 q 241 157 195 227 q 385 87 288 87 z "},"װ":{"ha":819,"x_min":68,"x_max":696,"o":"m 68 0 m 570 698 l 477 698 l 477 799 l 696 799 l 696 0 l 570 0 l 570 698 m 161 698 l 68 698 l 68 799 l 287 799 l 287 0 l 161 0 l 161 698 z "},"ױ":{"ha":829,"x_min":68,"x_max":720,"o":"m 68 0 m 593 698 l 447 698 l 447 799 l 720 799 l 720 353 l 593 353 l 593 698 m 161 698 l 68 698 l 68 799 l 287 799 l 287 0 l 161 0 l 161 698 z "},"ײ":{"ha":839,"x_min":37,"x_max":730,"o":"m 37 353 m 604 698 l 457 698 l 457 799 l 730 799 l 730 353 l 604 353 l 604 698 m 184 698 l 37 698 l 37 799 l 310 799 l 310 353 l 184 353 l 184 698 z "},"ﭏ":{"ha":810,"x_min":56,"x_max":745,"o":"m 485 342 l 729 0 l 590 0 l 56 746 l 56 1018 l 182 1018 l 182 768 l 408 451 l 604 799 l 745 799 l 485 342 z "},"א":{"ha":891,"x_min":103,"x_max":826,"o":"m 570 349 l 823 0 l 682 0 l 326 491 q 254 335 254 446 l 254 0 l 132 0 l 132 290 q 167 459 132 393 q 276 559 202 526 l 103 799 l 244 799 l 492 457 l 684 799 l 826 799 l 570 349 z "},"ב":{"ha":732,"x_min":41,"x_max":698,"o":"m 698 96 l 698 0 l 41 0 l 41 102 l 475 102 l 475 501 q 429 651 475 605 q 278 698 382 698 l 85 698 l 85 799 l 285 799 q 521 723 441 799 q 601 498 601 647 l 601 106 l 698 96 z "},"ג":{"ha":537,"x_min":14,"x_max":482,"o":"m 45 -5 q 14 -3 24 -5 l 14 113 q 53 110 32 110 q 212 169 151 113 q 290 315 273 226 l 290 698 l 109 698 l 109 799 l 414 799 l 414 387 q 427 264 414 323 l 482 0 l 363 0 l 317 224 l 312 224 q 267 111 304 163 q 171 26 229 58 q 45 -5 113 -5 z "},"ד":{"ha":724,"x_min":41,"x_max":680,"o":"m 680 799 l 680 698 l 547 698 l 547 0 l 420 0 l 420 698 l 41 698 l 41 799 l 680 799 z "},"ה":{"ha":817,"x_min":100,"x_max":713,"o":"m 587 501 q 541 651 587 605 q 390 698 494 698 l 100 698 l 100 799 l 396 799 q 633 723 553 799 q 713 498 713 647 l 713 0 l 587 0 l 587 501 m 102 273 q 111 370 102 334 q 137 441 120 406 l 240 441 q 228 372 232 410 q 224 281 224 334 l 224 0 l 102 0 l 102 273 z "},"ו":{"ha":410,"x_min":68,"x_max":287,"o":"m 161 698 l 68 698 l 68 799 l 287 799 l 287 0 l 161 0 l 161 698 z "},"ז":{"ha":491,"x_min":52,"x_max":439,"o":"m 108 692 l 52 702 l 52 799 l 439 799 l 439 698 l 233 698 l 346 0 l 216 0 l 108 692 z "},"ח":{"ha":843,"x_min":123,"x_max":739,"o":"m 123 799 l 424 799 q 661 723 583 799 q 739 493 739 648 l 739 0 l 614 0 l 614 500 q 569 651 614 604 q 425 698 524 698 l 249 698 l 248 0 l 123 0 l 123 799 z "},"ט":{"ha":857,"x_min":123,"x_max":760,"o":"m 442 -15 q 275 25 347 -15 q 163 138 203 65 q 123 306 123 210 l 123 799 l 248 799 l 248 297 q 272 186 248 234 q 340 112 296 138 q 441 85 384 85 q 542 112 498 85 q 610 186 586 138 q 634 297 634 234 l 634 565 q 605 666 634 630 q 524 701 576 701 q 426 675 479 701 l 406 760 q 481 794 440 781 q 560 806 522 806 q 667 779 622 806 q 736 699 712 751 q 760 575 760 646 l 760 306 q 721 138 760 210 q 609 25 681 65 q 442 -15 537 -15 z "},"י":{"ha":419,"x_min":37,"x_max":310,"o":"m 184 698 l 37 698 l 37 799 l 310 799 l 310 353 l 184 353 l 184 698 z "},"ך":{"ha":688,"x_min":44,"x_max":566,"o":"m 441 698 l 44 698 l 44 799 l 566 799 l 566 -282 l 441 -282 l 441 698 z "},"כ":{"ha":747,"x_min":55,"x_max":624,"o":"m 283 -12 q 55 24 180 -12 l 75 119 q 267 90 183 90 q 439 145 380 90 q 498 303 498 200 l 498 698 l 83 698 l 83 799 l 624 799 l 624 330 q 534 75 624 161 q 283 -12 444 -12 z "},"ל":{"ha":713,"x_min":56,"x_max":663,"o":"m 663 720 l 370 0 l 235 0 l 525 698 l 56 698 l 56 1042 l 182 1042 l 182 799 l 663 799 l 663 720 z "},"ם":{"ha":882,"x_min":122,"x_max":760,"o":"m 122 799 l 760 799 l 760 0 l 122 0 l 122 799 m 634 102 l 634 698 l 248 698 l 248 102 l 634 102 z "},"מ":{"ha":881,"x_min":90,"x_max":778,"o":"m 177 508 q 209 613 184 564 q 267 688 233 662 q 280 698 269 690 l 279 700 q 202 683 248 694 q 119 658 157 671 l 90 753 q 266 797 168 780 q 446 814 363 814 q 692 728 607 814 q 778 476 777 642 l 778 0 l 449 0 l 449 101 l 652 101 l 652 490 q 604 652 652 597 q 465 708 556 708 q 355 657 399 708 q 300 520 311 607 l 240 0 l 116 0 l 177 508 z "},"ן":{"ha":399,"x_min":58,"x_max":277,"o":"m 153 698 l 58 698 l 58 799 l 277 799 l 277 -282 l 153 -282 l 153 698 z "},"נ":{"ha":503,"x_min":41,"x_max":380,"o":"m 170 -14 q 41 1 108 -14 l 44 100 q 143 91 88 91 q 227 123 199 91 q 254 221 254 155 l 254 698 l 98 698 l 98 799 l 380 799 l 380 211 q 326 44 380 101 q 170 -14 272 -14 z "},"ס":{"ha":885,"x_min":70,"x_max":791,"o":"m 453 -15 q 278 31 354 -15 q 159 160 201 77 q 115 352 116 243 l 115 433 q 130 537 115 486 q 170 630 144 589 q 229 692 196 671 q 238 698 234 696 l 237 700 q 94 667 201 696 l 70 762 q 249 800 149 785 q 433 814 349 814 q 624 770 544 814 q 748 644 705 726 q 791 448 791 562 l 791 352 q 749 160 791 243 q 630 31 707 77 q 453 -15 553 -15 m 453 92 q 565 124 516 92 q 640 215 613 156 q 666 351 666 274 l 666 446 q 639 586 666 526 q 563 676 612 645 q 446 708 513 708 q 339 676 385 708 q 268 583 294 644 q 241 440 243 522 l 241 351 q 268 215 241 274 q 342 124 294 156 q 453 92 390 92 z "},"ע":{"ha":804,"x_min":41,"x_max":681,"o":"m 681 799 l 681 320 q 636 137 681 212 q 512 22 592 61 q 326 -17 431 -17 q 41 39 189 -17 l 72 133 q 284 81 190 87 q 217 216 234 140 l 85 799 l 211 799 l 340 210 q 359 140 349 168 q 382 87 368 111 q 510 164 464 106 q 555 315 555 222 l 555 799 l 681 799 z "},"ף":{"ha":824,"x_min":97,"x_max":701,"o":"m 701 -282 l 577 -282 l 577 698 l 303 698 q 268 602 281 661 q 254 486 254 543 l 254 394 q 295 385 270 387 q 361 382 320 382 l 361 273 q 229 283 277 273 q 132 319 180 293 l 130 452 q 146 587 128 520 q 194 698 163 654 l 97 698 l 97 799 l 701 799 l 701 -282 z "},"פ":{"ha":871,"x_min":96,"x_max":748,"o":"m 399 -14 q 269 -2 339 -14 q 135 32 199 9 l 159 126 q 280 99 219 108 q 391 90 342 90 q 562 146 502 91 q 623 303 623 201 l 623 698 l 302 698 q 268 603 281 661 q 254 489 254 546 l 254 428 q 294 418 269 421 q 360 416 319 416 l 360 307 q 228 317 276 307 q 132 353 180 327 l 129 456 q 146 590 129 524 q 193 698 163 655 l 96 698 l 96 799 l 748 799 l 748 327 q 704 138 748 214 q 582 24 660 62 q 399 -14 503 -14 z "},"ץ":{"ha":743,"x_min":40,"x_max":713,"o":"m 484 343 q 513 280 504 314 q 522 201 522 245 l 522 -282 l 404 -282 l 404 213 q 378 304 404 267 l 40 799 l 182 799 l 393 475 l 572 799 l 713 799 l 467 367 l 484 343 z "},"צ":{"ha":759,"x_min":40,"x_max":713,"o":"m 469 368 l 680 64 l 680 0 l 88 0 l 88 102 l 517 102 l 40 799 l 182 799 l 395 477 l 572 799 l 713 799 l 469 368 z "},"ק":{"ha":863,"x_min":121,"x_max":741,"o":"m 391 99 q 509 129 458 101 q 587 207 559 157 q 614 327 614 258 l 614 698 l 121 698 l 121 799 l 741 799 l 741 330 q 697 156 741 230 q 575 42 654 83 q 391 0 496 2 l 391 99 m 137 300 q 146 396 137 361 q 172 467 155 431 l 275 467 q 263 399 267 437 q 259 307 259 362 l 259 -282 l 137 -282 l 137 300 z "},"ר":{"ha":682,"x_min":41,"x_max":578,"o":"m 452 557 q 414 660 452 623 q 309 698 376 698 l 41 698 l 41 799 l 313 799 q 455 769 395 799 q 546 683 515 739 q 578 548 578 627 l 578 0 l 452 0 l 452 557 z "},"ש":{"ha":1103,"x_min":123,"x_max":980,"o":"m 245 142 q 382 98 310 114 q 519 83 454 83 q 693 111 616 83 q 814 196 770 139 q 858 338 858 254 l 858 799 l 980 799 l 980 326 q 919 136 980 214 q 755 20 859 58 q 525 -19 652 -19 q 321 4 426 -19 q 123 73 217 28 l 123 799 l 245 799 l 245 142 m 437 220 q 475 293 462 247 q 488 401 488 340 l 488 799 l 610 799 l 610 424 q 593 303 610 355 q 541 216 576 252 l 437 220 z "},"ת":{"ha":867,"x_min":6,"x_max":764,"o":"m 449 799 q 686 723 608 799 q 764 493 764 648 l 764 0 l 639 0 l 638 500 q 594 651 638 604 q 450 698 549 698 l 337 698 q 301 604 315 661 q 288 486 288 547 l 288 217 q 236 50 288 107 q 84 -7 184 -7 q 6 -1 55 -7 l 6 100 q 53 98 28 98 q 139 128 112 98 q 165 224 165 159 l 165 477 q 182 600 165 538 q 227 698 198 661 l 77 698 l 77 799 l 449 799 z "},"ײַ":{"ha":839,"x_min":37,"x_max":730,"o":"m 37 0 m 604 698 l 457 698 l 457 799 l 730 799 l 730 353 l 604 353 l 604 698 m 184 698 l 37 698 l 37 799 l 310 799 l 310 353 l 184 353 l 184 698 m 113 -132 l 387 -132 l 387 -196 l 113 -196 l 113 -132 z "},"ﬠ":{"ha":826,"x_min":41,"x_max":703,"o":"m 703 799 l 680 314 q 630 129 674 205 q 508 13 586 52 q 326 -26 431 -26 q 41 33 199 -26 l 72 127 q 300 74 198 77 q 227 216 245 134 l 95 799 l 221 799 l 350 210 q 369 138 359 168 q 394 84 379 109 q 509 161 468 104 q 555 309 551 218 l 578 799 l 703 799 z "},"ﬡ":{"ha":1229,"x_min":103,"x_max":1164,"o":"m 859 260 l 1142 0 l 968 0 l 323 595 q 286 505 298 555 q 273 388 273 455 l 273 0 l 151 0 l 151 392 q 264 650 151 564 l 103 799 l 271 799 l 768 343 l 1023 799 l 1164 799 l 859 260 z "},"ﬢ":{"ha":913,"x_min":41,"x_max":870,"o":"m 870 799 l 870 705 l 709 690 l 709 0 l 583 0 l 583 698 l 41 698 l 41 799 l 870 799 z "},"ﬣ":{"ha":1106,"x_min":100,"x_max":1003,"o":"m 877 557 q 839 660 877 623 q 735 698 801 698 l 101 698 l 101 799 l 738 799 q 880 769 821 799 q 971 683 940 739 q 1003 548 1003 627 l 1003 0 l 877 0 l 877 557 m 100 269 q 108 358 100 321 q 127 428 115 395 l 239 444 l 245 438 q 230 359 236 404 q 224 264 224 313 l 224 0 l 100 0 l 100 269 z "},"ﬤ":{"ha":1060,"x_min":55,"x_max":937,"o":"m 465 -23 q 272 -11 377 -23 q 55 25 166 1 l 74 126 q 283 93 184 104 q 460 82 383 82 q 724 141 637 82 q 812 315 811 199 l 812 698 l 78 698 l 78 799 l 937 799 l 937 314 q 815 62 937 146 q 465 -23 693 -23 z "},"ﬥ":{"ha":961,"x_min":56,"x_max":911,"o":"m 911 720 l 493 0 l 358 0 l 756 698 l 56 698 l 56 1018 l 182 1018 l 182 799 l 911 799 l 911 720 z "},"ﬦ":{"ha":1196,"x_min":77,"x_max":1095,"o":"m 77 799 l 1095 799 l 1095 0 l 77 0 l 77 799 m 969 102 l 969 698 l 203 698 l 203 102 l 969 102 z "},"ﬧ":{"ha":973,"x_min":41,"x_max":869,"o":"m 744 557 q 706 660 744 623 q 602 698 668 698 l 41 698 l 41 799 l 604 799 q 747 769 687 799 q 838 683 806 739 q 869 548 869 627 l 869 0 l 744 0 l 744 557 z "},"ﬨ":{"ha":1190,"x_min":6,"x_max":1087,"o":"m 772 799 q 1009 723 931 799 q 1087 493 1087 648 l 1087 0 l 962 0 l 961 500 q 917 651 961 604 q 773 698 872 698 l 337 698 q 301 604 315 661 q 288 486 288 547 l 288 217 q 236 50 288 107 q 84 -7 184 -7 q 6 -1 55 -7 l 6 100 q 53 98 28 98 q 139 128 112 98 q 165 224 165 159 l 165 477 q 182 600 165 538 q 227 698 198 661 l 77 698 l 77 799 l 772 799 z "},"שׁ":{"ha":1103,"x_min":123,"x_max":980,"o":"m 123 0 m 245 142 q 382 98 310 114 q 519 83 454 83 q 693 111 616 83 q 814 196 770 139 q 858 338 858 254 l 858 799 l 980 799 l 980 326 q 919 136 980 214 q 755 20 859 58 q 525 -19 652 -19 q 321 4 426 -19 q 123 73 217 28 l 123 799 l 245 799 l 245 142 m 437 220 q 475 293 462 247 q 488 401 488 340 l 488 799 l 610 799 l 610 424 q 593 303 610 355 q 541 216 576 252 l 437 220 m 915 903 q 877 917 892 903 q 861 951 861 932 q 877 987 861 972 q 915 1001 892 1001 q 952 987 937 1001 q 968 951 968 972 q 952 917 968 930 q 915 903 937 903 z "},"שׂ":{"ha":1103,"x_min":123,"x_max":980,"o":"m 123 0 m 245 142 q 382 98 310 114 q 519 83 454 83 q 693 111 616 83 q 814 196 770 139 q 858 338 858 254 l 858 799 l 980 799 l 980 326 q 919 136 980 214 q 755 20 859 58 q 525 -19 652 -19 q 321 4 426 -19 q 123 73 217 28 l 123 799 l 245 799 l 245 142 m 437 220 q 475 293 462 247 q 488 401 488 340 l 488 799 l 610 799 l 610 424 q 593 303 610 355 q 541 216 576 252 l 437 220 m 179 903 q 141 917 157 903 q 126 951 126 932 q 141 987 126 972 q 179 1001 157 1001 q 217 987 202 1001 q 233 951 233 972 q 217 917 233 930 q 179 903 202 903 z "},"שּׁ":{"ha":1103,"x_min":123,"x_max":980,"o":"m 123 0 m 245 142 q 382 98 310 114 q 519 83 454 83 q 693 111 616 83 q 814 196 770 139 q 858 338 858 254 l 858 799 l 980 799 l 980 326 q 919 136 980 214 q 755 20 859 58 q 525 -19 652 -19 q 321 4 426 -19 q 123 73 217 28 l 123 799 l 245 799 l 245 142 m 437 220 q 475 293 462 247 q 488 401 488 340 l 488 799 l 610 799 l 610 424 q 593 303 610 355 q 541 216 576 252 l 437 220 m 734 359 q 696 374 711 359 q 681 409 681 389 q 696 444 681 430 q 734 458 711 458 q 772 444 757 458 q 787 409 787 430 q 772 373 787 387 q 734 359 757 359 m 915 903 q 877 917 892 903 q 861 951 861 932 q 877 987 861 972 q 915 1001 892 1001 q 952 987 937 1001 q 968 951 968 972 q 952 917 968 930 q 915 903 937 903 z "},"שּׂ":{"ha":1103,"x_min":123,"x_max":980,"o":"m 123 0 m 245 142 q 382 98 310 114 q 519 83 454 83 q 693 111 616 83 q 814 196 770 139 q 858 338 858 254 l 858 799 l 980 799 l 980 326 q 919 136 980 214 q 755 20 859 58 q 525 -19 652 -19 q 321 4 426 -19 q 123 73 217 28 l 123 799 l 245 799 l 245 142 m 437 220 q 475 293 462 247 q 488 401 488 340 l 488 799 l 610 799 l 610 424 q 593 303 610 355 q 541 216 576 252 l 437 220 m 734 359 q 696 374 711 359 q 681 409 681 389 q 696 444 681 430 q 734 458 711 458 q 772 444 757 458 q 787 409 787 430 q 772 373 787 387 q 734 359 757 359 m 179 903 q 141 917 157 903 q 126 951 126 932 q 141 987 126 972 q 179 1001 157 1001 q 217 987 202 1001 q 233 951 233 972 q 217 917 233 930 q 179 903 202 903 z "},"אַ":{"ha":891,"x_min":103,"x_max":826,"o":"m 103 0 m 570 349 l 823 0 l 682 0 l 326 491 q 254 335 254 446 l 254 0 l 132 0 l 132 290 q 167 459 132 393 q 276 559 202 526 l 103 799 l 244 799 l 492 457 l 684 799 l 826 799 l 570 349 m 323 -132 l 597 -132 l 597 -196 l 323 -196 l 323 -132 z "},"אָ":{"ha":891,"x_min":103,"x_max":826,"o":"m 103 0 m 570 349 l 823 0 l 682 0 l 326 491 q 254 335 254 446 l 254 0 l 132 0 l 132 290 q 167 459 132 393 q 276 559 202 526 l 103 799 l 244 799 l 492 457 l 684 799 l 826 799 l 570 349 m 463 -363 q 425 -348 440 -363 q 409 -313 409 -333 q 411 -298 409 -304 q 419 -280 414 -291 q 433 -245 428 -263 q 441 -196 439 -227 l 333 -196 l 333 -132 l 589 -132 l 589 -196 l 484 -196 q 491 -245 486 -227 q 505 -280 496 -263 q 513 -298 511 -292 q 515 -313 515 -304 q 500 -349 515 -334 q 463 -363 485 -363 z "},"אּ":{"ha":891,"x_min":103,"x_max":826,"o":"m 103 0 m 570 349 l 823 0 l 682 0 l 326 491 q 254 335 254 446 l 254 0 l 132 0 l 132 290 q 167 459 132 393 q 276 559 202 526 l 103 799 l 244 799 l 492 457 l 684 799 l 826 799 l 570 349 m 395 100 q 358 115 373 100 q 342 151 342 130 q 358 186 342 172 q 395 200 373 200 q 434 186 418 200 q 449 151 449 172 q 434 115 449 129 q 395 100 418 100 z "},"בּ":{"ha":732,"x_min":41,"x_max":698,"o":"m 41 0 m 698 96 l 698 0 l 41 0 l 41 102 l 475 102 l 475 501 q 429 651 475 605 q 278 698 382 698 l 85 698 l 85 799 l 285 799 q 521 723 441 799 q 601 498 601 647 l 601 106 l 698 96 m 258 359 q 221 374 236 359 q 205 409 205 389 q 221 444 205 430 q 258 458 236 458 q 297 444 281 458 q 312 409 312 430 q 297 373 312 387 q 258 359 281 359 z "},"גּ":{"ha":537,"x_min":14,"x_max":482,"o":"m 14 0 m 45 -5 q 14 -3 24 -5 l 14 113 q 53 110 32 110 q 212 169 151 113 q 290 315 273 226 l 290 698 l 109 698 l 109 799 l 414 799 l 414 387 q 427 264 414 323 l 482 0 l 363 0 l 317 224 l 312 224 q 267 111 304 163 q 171 26 229 58 q 45 -5 113 -5 m 136 359 q 99 374 114 359 q 83 409 83 389 q 99 444 83 430 q 136 458 114 458 q 175 444 159 458 q 190 409 190 430 q 175 373 190 387 q 136 359 159 359 z "},"דּ":{"ha":724,"x_min":41,"x_max":680,"o":"m 41 0 m 680 799 l 680 698 l 547 698 l 547 0 l 420 0 l 420 698 l 41 698 l 41 799 l 680 799 m 218 359 q 181 374 196 359 q 165 409 165 389 q 181 444 165 430 q 218 458 196 458 q 257 444 241 458 q 272 409 272 430 q 257 373 272 387 q 218 359 241 359 z "},"הּ":{"ha":817,"x_min":100,"x_max":713,"o":"m 100 0 m 587 501 q 541 651 587 605 q 390 698 494 698 l 100 698 l 100 799 l 396 799 q 633 723 553 799 q 713 498 713 647 l 713 0 l 587 0 l 587 501 m 102 273 q 111 370 102 334 q 137 441 120 406 l 240 441 q 228 372 232 410 q 224 281 224 334 l 224 0 l 102 0 l 102 273 m 406 359 q 368 374 383 359 q 353 409 353 389 q 368 444 353 430 q 406 458 383 458 q 444 444 429 458 q 459 409 459 430 q 444 373 459 387 q 406 359 429 359 z "},"וּ":{"ha":410,"x_min":-5,"x_max":287,"o":"m 0 0 m 161 698 l 68 698 l 68 799 l 287 799 l 287 0 l 161 0 l 161 698 m 48 359 q 11 374 26 359 q -5 409 -5 389 q 11 444 -5 430 q 48 458 26 458 q 86 444 71 458 q 102 409 102 430 q 86 373 102 387 q 48 359 71 359 z "},"זּ":{"ha":491,"x_min":52,"x_max":439,"o":"m 52 0 m 108 692 l 52 702 l 52 799 l 439 799 l 439 698 l 233 698 l 346 0 l 216 0 l 108 692 m 383 359 q 346 374 361 359 q 330 409 330 389 q 346 444 330 430 q 383 458 361 458 q 421 444 406 458 q 437 409 437 430 q 421 373 437 387 q 383 359 406 359 z "},"טּ":{"ha":857,"x_min":123,"x_max":760,"o":"m 123 0 m 442 -15 q 275 25 347 -15 q 163 138 203 65 q 123 306 123 210 l 123 799 l 248 799 l 248 297 q 272 186 248 234 q 340 112 296 138 q 441 85 384 85 q 542 112 498 85 q 610 186 586 138 q 634 297 634 234 l 634 565 q 605 666 634 630 q 524 701 576 701 q 426 675 479 701 l 406 760 q 481 794 440 781 q 560 806 522 806 q 667 779 622 806 q 736 699 712 751 q 760 575 760 646 l 760 306 q 721 138 760 210 q 609 25 681 65 q 442 -15 537 -15 m 441 359 q 404 374 419 359 q 389 409 389 389 q 404 444 389 430 q 441 458 419 458 q 480 444 465 458 q 495 409 495 430 q 480 373 495 387 q 441 359 465 359 z "},"יּ":{"ha":419,"x_min":9,"x_max":310,"o":"m 9 353 m 184 698 l 37 698 l 37 799 l 310 799 l 310 353 l 184 353 l 184 698 m 62 486 q 24 501 39 486 q 9 536 9 516 q 24 572 9 557 q 62 586 39 586 q 100 572 85 586 q 115 536 115 557 q 100 500 115 515 q 62 486 85 486 z "},"ךּ":{"ha":688,"x_min":44,"x_max":566,"o":"m 44 0 m 441 698 l 44 698 l 44 799 l 566 799 l 566 -282 l 441 -282 l 441 698 m 223 359 q 185 374 201 359 q 170 409 170 389 q 185 444 170 430 q 223 458 201 458 q 261 444 246 458 q 277 409 277 430 q 261 373 277 387 q 223 359 246 359 z "},"כּ":{"ha":747,"x_min":55,"x_max":624,"o":"m 55 0 m 283 -12 q 55 24 180 -12 l 75 119 q 267 90 183 90 q 439 145 380 90 q 498 303 498 200 l 498 698 l 83 698 l 83 799 l 624 799 l 624 330 q 534 75 624 161 q 283 -12 444 -12 m 277 359 q 239 374 254 359 q 224 409 224 389 q 239 444 224 430 q 277 458 254 458 q 315 444 300 458 q 330 409 330 430 q 315 373 330 387 q 277 359 300 359 z "},"לּ":{"ha":713,"x_min":56,"x_max":663,"o":"m 56 0 m 663 720 l 370 0 l 235 0 l 525 698 l 56 698 l 56 1042 l 182 1042 l 182 799 l 663 799 l 663 720 m 210 410 q 173 425 188 410 q 157 460 157 440 q 173 496 157 481 q 210 510 188 510 q 249 496 233 510 q 264 460 264 481 q 249 425 264 439 q 210 410 233 410 z "},"מּ":{"ha":881,"x_min":90,"x_max":778,"o":"m 90 0 m 177 508 q 209 613 184 564 q 267 688 233 662 q 280 698 269 690 l 279 700 q 202 683 248 694 q 119 658 157 671 l 90 753 q 266 797 168 780 q 446 814 363 814 q 692 728 607 814 q 778 476 777 642 l 778 0 l 449 0 l 449 101 l 652 101 l 652 490 q 604 652 652 597 q 465 708 556 708 q 355 657 399 708 q 300 520 311 607 l 240 0 l 116 0 l 177 508 m 467 359 q 429 374 444 359 q 414 409 414 389 q 429 444 414 430 q 467 458 444 458 q 505 444 490 458 q 520 409 520 430 q 505 373 520 387 q 467 359 490 359 z "},"נּ":{"ha":503,"x_min":41,"x_max":380,"o":"m 41 0 m 170 -14 q 41 1 108 -14 l 44 100 q 143 91 88 91 q 227 123 199 91 q 254 221 254 155 l 254 698 l 98 698 l 98 799 l 380 799 l 380 211 q 326 44 380 101 q 170 -14 272 -14 m 117 359 q 79 374 94 359 q 64 409 64 389 q 79 444 64 430 q 117 458 94 458 q 155 444 140 458 q 170 409 170 430 q 155 373 170 387 q 117 359 140 359 z "},"סּ":{"ha":885,"x_min":70,"x_max":791,"o":"m 70 0 m 453 -15 q 278 31 354 -15 q 159 160 201 77 q 115 352 116 243 l 115 433 q 130 537 115 486 q 170 630 144 589 q 229 692 196 671 q 238 698 234 696 l 237 700 q 94 667 201 696 l 70 762 q 249 800 149 785 q 433 814 349 814 q 624 770 544 814 q 748 644 705 726 q 791 448 791 562 l 791 352 q 749 160 791 243 q 630 31 707 77 q 453 -15 553 -15 m 453 92 q 565 124 516 92 q 640 215 613 156 q 666 351 666 274 l 666 446 q 639 586 666 526 q 563 676 612 645 q 446 708 513 708 q 339 676 385 708 q 268 583 294 644 q 241 440 243 522 l 241 351 q 268 215 241 274 q 342 124 294 156 q 453 92 390 92 m 453 359 q 415 374 431 359 q 400 409 400 389 q 415 444 400 430 q 453 458 431 458 q 491 444 476 458 q 507 409 507 430 q 491 373 507 387 q 453 359 476 359 z "},"ףּ":{"ha":824,"x_min":97,"x_max":701,"o":"m 97 0 m 701 -282 l 577 -282 l 577 698 l 303 698 q 268 602 281 661 q 254 486 254 543 l 254 394 q 295 385 270 387 q 361 382 320 382 l 361 273 q 229 283 277 273 q 132 319 180 293 l 130 452 q 146 587 128 520 q 194 698 163 654 l 97 698 l 97 799 l 701 799 l 701 -282 m 418 479 q 380 494 395 479 q 365 530 365 509 q 380 565 365 551 q 418 579 395 579 q 456 565 441 579 q 471 530 471 551 q 456 494 471 508 q 418 479 441 479 z "},"פּ":{"ha":871,"x_min":96,"x_max":748,"o":"m 96 0 m 399 -14 q 269 -2 339 -14 q 135 32 199 9 l 159 126 q 280 99 219 108 q 391 90 342 90 q 562 146 502 91 q 623 303 623 201 l 623 698 l 302 698 q 268 603 281 661 q 254 489 254 546 l 254 428 q 294 418 269 421 q 360 416 319 416 l 360 307 q 228 317 276 307 q 132 353 180 327 l 129 456 q 146 590 129 524 q 193 698 163 655 l 96 698 l 96 799 l 748 799 l 748 327 q 704 138 748 214 q 582 24 660 62 q 399 -14 503 -14 m 440 488 q 402 503 418 488 q 387 538 387 517 q 402 573 387 559 q 440 587 418 587 q 478 573 463 587 q 494 538 494 559 q 478 502 494 516 q 440 488 463 488 z "},"צּ":{"ha":759,"x_min":40,"x_max":713,"o":"m 469 368 l 680 64 l 680 0 l 88 0 l 88 102 l 517 102 l 40 799 l 182 799 l 395 477 l 572 799 l 713 799 l 469 368 m 272 245 q 257 209 272 223 q 218 195 241 195 q 181 210 196 195 q 165 245 165 224 q 181 280 165 266 q 218 294 196 294 q 257 280 241 294 q 272 245 272 266 z "},"קּ":{"ha":863,"x_min":121,"x_max":741,"o":"m 121 0 m 391 99 q 509 129 458 101 q 587 207 559 157 q 614 327 614 258 l 614 698 l 121 698 l 121 799 l 741 799 l 741 330 q 697 156 741 230 q 575 42 654 83 q 391 0 496 2 l 391 99 m 137 300 q 146 396 137 361 q 172 467 155 431 l 275 467 q 263 399 267 437 q 259 307 259 362 l 259 -282 l 137 -282 l 137 300 m 433 359 q 395 374 410 359 q 380 409 380 389 q 395 444 380 430 q 433 458 410 458 q 471 444 456 458 q 486 409 486 430 q 471 373 486 387 q 433 359 456 359 z "},"רּ":{"ha":682,"x_min":41,"x_max":578,"o":"m 41 0 m 452 557 q 414 660 452 623 q 309 698 376 698 l 41 698 l 41 799 l 313 799 q 455 769 395 799 q 546 683 515 739 q 578 548 578 627 l 578 0 l 452 0 l 452 557 m 231 359 q 194 374 209 359 q 178 409 178 389 q 194 444 178 430 q 231 458 209 458 q 270 444 254 458 q 285 409 285 430 q 270 373 285 387 q 231 359 254 359 z "},"שּ":{"ha":1103,"x_min":123,"x_max":980,"o":"m 123 0 m 245 142 q 382 98 310 114 q 519 83 454 83 q 693 111 616 83 q 814 196 770 139 q 858 338 858 254 l 858 799 l 980 799 l 980 326 q 919 136 980 214 q 755 20 859 58 q 525 -19 652 -19 q 321 4 426 -19 q 123 73 217 28 l 123 799 l 245 799 l 245 142 m 437 220 q 475 293 462 247 q 488 401 488 340 l 488 799 l 610 799 l 610 424 q 593 303 610 355 q 541 216 576 252 l 437 220 m 734 359 q 696 374 711 359 q 681 409 681 389 q 696 444 681 430 q 734 458 711 458 q 772 444 757 458 q 787 409 787 430 q 772 373 787 387 q 734 359 757 359 z "},"תּ":{"ha":867,"x_min":6,"x_max":764,"o":"m 6 0 m 449 799 q 686 723 608 799 q 764 493 764 648 l 764 0 l 639 0 l 638 500 q 594 651 638 604 q 450 698 549 698 l 337 698 q 301 604 315 661 q 288 486 288 547 l 288 217 q 236 50 288 107 q 84 -7 184 -7 q 6 -1 55 -7 l 6 100 q 53 98 28 98 q 139 128 112 98 q 165 224 165 159 l 165 477 q 182 600 165 538 q 227 698 198 661 l 77 698 l 77 799 l 449 799 m 463 359 q 426 374 441 359 q 410 409 410 389 q 426 444 410 430 q 463 458 441 458 q 502 444 486 458 q 517 409 517 430 q 502 373 517 387 q 463 359 486 359 z "},"וֹ":{"ha":410,"x_min":68,"x_max":287,"o":"m 68 0 m 161 698 l 68 698 l 68 799 l 287 799 l 287 0 l 161 0 l 161 698 m 179 903 q 141 917 157 903 q 125 951 125 932 q 141 987 125 972 q 179 1001 156 1001 q 217 987 202 1001 q 233 951 233 972 q 217 917 233 930 q 179 903 202 903 z "},"בֿ":{"ha":732,"x_min":41,"x_max":698,"o":"m 41 0 m 698 96 l 698 0 l 41 0 l 41 102 l 475 102 l 475 501 q 429 651 475 605 q 278 698 382 698 l 85 698 l 85 799 l 285 799 q 521 723 441 799 q 601 498 601 647 l 601 106 l 698 96 m 163 993 l 493 993 l 493 920 l 163 920 l 163 993 z "},"כֿ":{"ha":747,"x_min":55,"x_max":624,"o":"m 55 0 m 283 -12 q 55 24 180 -12 l 75 119 q 267 90 183 90 q 439 145 380 90 q 498 303 498 200 l 498 698 l 83 698 l 83 799 l 624 799 l 624 330 q 534 75 624 161 q 283 -12 444 -12 m 159 993 l 489 993 l 489 920 l 159 920 l 159 993 z "},"פֿ":{"ha":871,"x_min":96,"x_max":748,"o":"m 96 0 m 399 -14 q 269 -2 339 -14 q 135 32 199 9 l 159 126 q 280 99 219 108 q 391 90 342 90 q 562 146 502 91 q 623 303 623 201 l 623 698 l 302 698 q 268 603 281 661 q 254 489 254 546 l 254 428 q 294 418 269 421 q 360 416 319 416 l 360 307 q 228 317 276 307 q 132 353 180 327 l 129 456 q 146 590 129 524 q 193 698 163 655 l 96 698 l 96 799 l 748 799 l 748 327 q 704 138 748 214 q 582 24 660 62 q 399 -14 503 -14 m 272 993 l 602 993 l 602 920 l 272 920 l 272 993 z "},"⁄":{"ha":631,"x_min":41,"x_max":594,"o":"m 41 120 l 523 892 l 594 847 l 112 75 l 41 120 z "},"₀":{"ha":510,"x_min":54,"x_max":454,"o":"m 54 0 m 454 -29 q 401 -200 454 -142 q 256 -257 348 -257 q 108 -200 162 -257 q 54 -29 54 -142 l 54 65 q 108 235 54 178 q 254 293 161 293 q 401 235 347 293 q 454 65 454 178 l 454 -29 m 347 75 q 254 206 347 206 q 162 75 162 206 l 162 -38 q 256 -171 162 -171 q 347 -38 347 -171 l 347 75 z "},"₁":{"ha":510,"x_min":83,"x_max":336,"o":"m 83 0 m 229 -249 l 229 160 l 83 121 l 83 208 l 324 286 l 336 286 l 336 -249 l 229 -249 z "},"₂":{"ha":510,"x_min":45,"x_max":464,"o":"m 45 0 m 57 -249 l 57 -176 l 253 8 q 315 79 296 49 q 334 132 334 109 q 312 187 334 166 q 251 208 290 208 q 177 182 202 208 q 153 117 153 157 l 45 117 q 70 206 45 165 q 140 270 94 246 q 248 294 186 294 q 352 274 309 294 q 419 219 396 255 q 442 134 442 182 q 427 68 442 99 q 385 8 412 37 q 313 -63 358 -22 l 194 -163 l 464 -163 l 464 -249 l 57 -249 z "},"₃":{"ha":510,"x_min":43,"x_max":452,"o":"m 43 0 m 351 26 q 452 -100 452 -3 q 426 -184 452 -149 q 352 -238 399 -219 q 245 -256 304 -256 q 145 -239 191 -256 q 71 -186 99 -222 q 43 -98 43 -151 l 150 -98 q 177 -150 150 -130 q 248 -170 205 -170 q 319 -150 294 -170 q 345 -94 345 -129 q 317 -34 345 -53 q 237 -16 290 -16 l 180 -16 l 180 37 l 180 62 l 237 62 q 311 83 286 62 q 336 137 336 103 q 313 188 336 169 q 246 208 291 208 q 182 190 208 208 q 157 144 157 173 l 50 144 q 75 223 50 189 q 145 275 101 257 q 244 294 190 294 q 389 254 335 294 q 443 142 443 214 q 419 73 443 104 q 351 26 395 42 z "},"₄":{"ha":510,"x_min":37,"x_max":475,"o":"m 37 0 m 475 -134 l 402 -134 l 402 -249 l 294 -249 l 294 -134 l 41 -134 l 37 -65 l 292 286 l 377 286 l 402 286 l 402 -46 l 475 -46 l 475 -134 m 294 -46 l 294 149 l 284 132 l 144 -46 l 294 -46 z "},"₅":{"ha":510,"x_min":62,"x_max":461,"o":"m 62 0 m 110 286 l 435 286 l 435 198 l 199 198 l 183 81 q 225 95 200 89 q 277 101 250 101 q 413 55 364 101 q 461 -74 461 8 q 439 -165 461 -124 q 372 -232 417 -207 q 262 -256 328 -256 q 165 -238 210 -256 q 93 -185 121 -220 q 62 -102 64 -150 l 168 -102 q 196 -153 172 -136 q 262 -170 221 -170 q 331 -143 309 -170 q 353 -73 353 -117 q 327 -3 353 -29 q 252 22 300 22 q 200 15 218 22 q 162 -7 182 7 l 76 14 l 110 286 z "},"₆":{"ha":510,"x_min":58,"x_max":464,"o":"m 58 0 m 292 106 q 387 83 348 106 q 445 19 425 60 q 464 -73 464 -21 q 440 -166 464 -125 q 371 -232 416 -208 q 266 -256 326 -256 q 156 -231 203 -256 q 84 -157 109 -205 q 58 -44 58 -109 l 58 -6 q 136 215 58 136 q 360 293 214 293 l 375 293 l 375 205 l 368 205 q 167 54 183 205 q 222 92 190 78 q 292 106 254 106 m 264 -170 q 331 -143 306 -170 q 357 -73 357 -115 q 332 -5 357 -31 q 263 20 308 20 q 204 6 231 20 q 165 -31 178 -9 l 165 -54 q 193 -140 165 -110 q 264 -170 220 -170 z "},"₇":{"ha":510,"x_min":40,"x_max":460,"o":"m 40 0 m 223 -249 l 110 -249 l 347 199 l 40 199 l 40 286 l 460 286 l 460 226 l 223 -249 z "},"₈":{"ha":510,"x_min":54,"x_max":456,"o":"m 54 0 m 361 26 q 431 -25 406 8 q 456 -102 456 -58 q 430 -186 456 -152 q 358 -239 404 -221 q 255 -256 313 -256 q 152 -239 197 -256 q 80 -186 106 -221 q 54 -102 54 -152 q 79 -25 54 -58 q 148 27 104 8 q 89 75 110 45 q 67 144 67 105 q 119 254 67 215 q 254 294 170 294 q 352 276 309 294 q 418 225 394 259 q 442 144 442 191 q 421 75 442 105 q 361 26 399 45 m 254 208 q 196 189 217 208 q 174 138 174 170 q 196 87 174 106 q 255 68 218 68 q 313 87 292 68 q 335 138 335 106 q 313 189 335 170 q 254 208 291 208 m 255 -170 q 323 -150 297 -170 q 349 -94 349 -130 q 322 -39 349 -60 q 254 -19 296 -19 q 186 -39 212 -19 q 161 -94 161 -60 q 187 -150 161 -130 q 255 -170 212 -170 z "},"₉":{"ha":510,"x_min":50,"x_max":449,"o":"m 50 0 m 248 294 q 396 236 342 294 q 449 75 449 178 l 449 40 q 376 -179 449 -104 q 152 -254 302 -254 l 142 -254 l 142 -168 l 151 -168 q 288 -135 243 -168 q 340 -32 334 -102 q 289 -64 319 -52 q 225 -76 259 -76 q 130 -53 169 -76 q 70 10 90 -31 q 50 103 50 50 q 74 199 50 155 q 144 268 98 242 q 248 294 189 294 m 250 6 q 306 20 282 6 q 342 55 330 34 l 342 95 q 316 178 342 149 q 248 207 290 207 q 182 177 207 207 q 157 103 157 146 q 181 33 157 60 q 250 6 205 6 z "},"⁰":{"ha":510,"x_min":54,"x_max":454,"o":"m 54 445 m 454 673 q 401 502 454 559 q 256 445 348 445 q 108 502 162 445 q 54 673 54 559 l 54 767 q 108 937 54 880 q 254 995 161 995 q 401 937 347 995 q 454 767 454 880 l 454 673 m 347 777 q 254 908 347 908 q 162 777 162 908 l 162 664 q 256 531 162 531 q 347 664 347 531 l 347 777 z "},"¹":{"ha":510,"x_min":83,"x_max":336,"o":"m 83 452 m 229 452 l 229 861 l 83 822 l 83 909 l 324 987 l 336 987 l 336 452 l 229 452 z "},"²":{"ha":510,"x_min":45,"x_max":464,"o":"m 45 452 m 57 452 l 57 526 l 253 709 q 315 780 296 750 q 334 833 334 810 q 312 888 334 867 q 251 909 290 909 q 177 884 202 909 q 153 818 153 859 l 45 818 q 70 907 45 867 q 140 971 94 947 q 248 995 186 995 q 352 976 309 995 q 419 920 396 956 q 442 835 442 884 q 427 769 442 800 q 385 709 412 739 q 313 638 358 680 l 194 538 l 464 538 l 464 452 l 57 452 z "},"³":{"ha":510,"x_min":43,"x_max":452,"o":"m 43 445 m 351 727 q 452 602 452 699 q 426 517 452 553 q 352 464 399 482 q 245 445 304 445 q 145 462 191 445 q 71 515 99 479 q 43 603 43 551 l 150 603 q 177 551 150 572 q 248 531 205 531 q 319 552 294 531 q 345 607 345 572 q 317 667 345 648 q 237 686 290 686 l 180 686 l 180 738 l 180 764 l 237 764 q 311 784 286 764 q 336 838 336 804 q 313 889 336 870 q 246 909 291 909 q 182 891 208 909 q 157 845 157 874 l 50 845 q 75 924 50 890 q 145 977 101 958 q 244 995 190 995 q 389 955 335 995 q 443 843 443 916 q 419 774 443 805 q 351 727 395 743 z "},"⁴":{"ha":510,"x_min":37,"x_max":475,"o":"m 37 452 m 475 568 l 402 568 l 402 452 l 294 452 l 294 568 l 41 568 l 37 636 l 292 987 l 377 987 l 402 987 l 402 655 l 475 655 l 475 568 m 294 655 l 294 850 l 284 833 l 144 655 l 294 655 z "},"⁵":{"ha":510,"x_min":62,"x_max":461,"o":"m 62 445 m 110 987 l 435 987 l 435 899 l 199 899 l 183 783 q 225 796 200 790 q 277 802 250 802 q 413 756 364 802 q 461 627 461 709 q 439 536 461 577 q 372 470 417 494 q 262 445 328 445 q 165 463 210 445 q 93 516 121 481 q 62 599 64 551 l 168 599 q 196 548 172 565 q 262 531 221 531 q 331 558 309 531 q 353 629 353 585 q 327 698 353 672 q 252 724 300 724 q 200 716 218 724 q 162 694 182 709 l 76 715 l 110 987 z "},"⁶":{"ha":510,"x_min":58,"x_max":464,"o":"m 58 445 m 292 808 q 387 784 348 808 q 445 721 425 761 q 464 629 464 680 q 440 535 464 576 q 371 469 416 493 q 266 445 326 445 q 156 471 203 445 q 84 545 109 496 q 58 657 58 593 l 58 695 q 136 916 58 838 q 360 994 214 994 l 375 994 l 375 906 l 368 906 q 167 755 183 906 q 222 793 190 779 q 292 808 254 808 m 264 531 q 331 558 306 531 q 357 628 357 586 q 332 696 357 671 q 263 722 308 722 q 204 707 231 722 q 165 671 178 692 l 165 647 q 193 561 165 591 q 264 531 220 531 z "},"⁷":{"ha":510,"x_min":40,"x_max":460,"o":"m 40 452 m 223 452 l 110 452 l 347 901 l 40 901 l 40 987 l 460 987 l 460 927 l 223 452 z "},"⁸":{"ha":510,"x_min":54,"x_max":456,"o":"m 54 445 m 361 728 q 431 676 406 709 q 456 599 456 643 q 430 515 456 549 q 358 463 404 480 q 255 445 313 445 q 152 463 197 445 q 80 515 106 480 q 54 599 54 549 q 79 676 54 643 q 148 728 104 709 q 89 776 110 746 q 67 846 67 806 q 119 956 67 916 q 254 995 170 995 q 352 978 309 995 q 418 926 394 960 q 442 846 442 892 q 421 776 442 806 q 361 728 399 746 m 254 909 q 196 890 217 909 q 174 840 174 871 q 196 789 174 808 q 255 770 218 770 q 313 789 292 770 q 335 840 335 808 q 313 890 335 871 q 254 909 291 909 m 255 531 q 323 551 297 531 q 349 607 349 572 q 322 662 349 642 q 254 682 296 682 q 186 662 212 682 q 161 607 161 642 q 187 551 161 572 q 255 531 212 531 z "},"⁹":{"ha":510,"x_min":50,"x_max":449,"o":"m 50 448 m 248 995 q 396 937 342 995 q 449 777 449 880 l 449 741 q 376 523 449 597 q 152 448 302 448 l 142 448 l 142 533 l 151 533 q 288 566 243 533 q 340 669 334 600 q 289 637 319 649 q 225 625 259 625 q 130 648 169 625 q 70 711 90 671 q 50 804 50 751 q 74 900 50 857 q 144 969 98 943 q 248 995 189 995 m 250 707 q 306 721 282 707 q 342 756 330 735 l 342 796 q 316 879 342 850 q 248 908 290 908 q 182 878 207 908 q 157 804 157 848 q 181 734 157 762 q 250 707 205 707 z "},"*":{"ha":598,"x_min":19,"x_max":579,"o":"m 19 729 l 51 830 l 255 754 l 249 988 l 353 988 l 347 751 l 547 826 l 579 723 l 372 661 l 505 477 l 420 414 l 295 610 l 173 418 l 87 480 l 223 667 l 19 729 z "},"\\":{"ha":570,"x_min":28,"x_max":560,"o":"m 148 987 l 560 -85 l 440 -85 l 28 987 l 148 987 z "},"·":{"ha":363,"x_min":100,"x_max":256,"o":"m 178 570 q 236 549 215 570 q 256 494 256 528 q 236 441 256 462 q 178 420 215 420 q 120 441 141 420 q 100 494 100 462 q 120 549 100 528 q 178 570 140 570 z "},"•":{"ha":469,"x_min":94,"x_max":371,"o":"m 94 524 q 111 593 94 562 q 159 641 128 623 q 232 658 191 658 q 306 641 275 658 q 354 593 338 623 q 371 524 371 563 l 371 496 q 334 400 371 437 q 233 363 296 363 q 159 380 191 363 q 111 428 128 397 q 94 496 94 458 l 94 524 z "},":":{"ha":338,"x_min":90,"x_max":248,"o":"m 90 0 m 168 142 q 226 120 205 142 q 247 66 247 99 q 226 13 247 33 q 168 -7 205 -7 q 111 13 132 -7 q 90 66 90 34 q 111 120 90 99 q 168 142 132 142 m 169 741 q 227 720 206 741 q 248 665 248 699 q 227 612 248 633 q 169 592 206 592 q 112 613 132 592 q 91 665 91 633 q 112 720 91 699 q 169 741 132 741 z "},",":{"ha":273,"x_min":19,"x_max":210,"o":"m 210 48 q 178 -84 210 -16 q 91 -197 146 -152 l 19 -148 q 69 -54 52 -101 q 86 46 86 -7 l 86 149 l 210 149 l 210 48 z "},"…":{"ha":930,"x_min":100,"x_max":836,"o":"m 100 0 m 178 142 q 236 120 215 142 q 256 66 256 99 q 236 13 256 33 q 178 -7 215 -7 q 120 13 141 -7 q 100 66 100 34 q 120 120 100 99 q 178 142 141 142 m 475 142 q 533 120 512 142 q 553 66 553 99 q 533 13 553 33 q 475 -7 512 -7 q 417 13 438 -7 q 397 66 397 34 q 417 120 397 99 q 475 142 438 142 m 757 142 q 815 120 794 142 q 836 66 836 99 q 815 13 836 33 q 757 -7 794 -7 q 700 13 720 -7 q 679 66 679 34 q 700 120 679 99 q 757 142 720 142 z "},"!":{"ha":359,"x_min":109,"x_max":258,"o":"m 123 279 l 113 987 l 246 987 l 237 279 l 123 279 m 183 135 q 238 115 218 135 q 258 63 258 94 q 238 12 258 32 q 183 -7 218 -7 q 129 12 148 -7 q 109 63 109 32 q 129 115 109 94 q 183 135 148 135 z "},"¡":{"ha":340,"x_min":94,"x_max":243,"o":"m 170 604 q 114 625 134 604 q 94 676 94 645 q 114 727 94 707 q 170 747 134 747 q 224 727 205 747 q 243 676 243 707 q 224 625 243 645 q 170 604 205 604 m 230 464 l 239 -245 l 106 -245 l 116 464 l 230 464 z "},"#":{"ha":857,"x_min":81,"x_max":838,"o":"m 682 612 l 635 371 l 787 371 l 787 278 l 617 278 l 563 0 l 465 0 l 519 278 l 341 278 l 287 0 l 189 0 l 243 278 l 81 278 l 81 371 l 262 371 l 309 612 l 133 612 l 133 705 l 327 705 l 382 987 l 479 987 l 425 705 l 603 705 l 658 987 l 756 987 l 701 705 l 838 705 l 838 612 l 682 612 m 585 612 l 406 612 l 359 371 l 538 371 l 585 612 z "},".":{"ha":367,"x_min":98,"x_max":254,"o":"m 176 142 q 234 120 213 142 q 254 66 254 99 q 234 13 254 33 q 176 -7 213 -7 q 118 13 139 -7 q 98 66 98 34 q 118 120 98 99 q 176 142 139 142 z "},"?":{"ha":657,"x_min":51,"x_max":602,"o":"m 242 278 q 254 384 243 342 q 288 458 264 425 q 359 540 311 492 q 380 561 359 540 q 433 619 414 596 q 463 671 451 642 q 475 740 475 701 q 438 852 475 812 q 330 892 400 892 q 254 878 289 892 q 199 832 220 863 q 178 756 178 801 l 51 756 q 89 886 52 831 q 189 971 125 942 q 330 1001 252 1001 q 477 970 416 1001 q 570 881 538 939 q 602 743 602 823 q 578 635 602 686 q 519 542 555 585 q 432 450 484 498 q 383 375 397 418 q 369 278 369 333 l 242 278 m 311 135 q 366 115 347 135 q 386 63 386 94 q 366 12 386 32 q 311 -7 347 -7 q 256 12 276 -7 q 237 63 237 32 q 256 115 237 94 q 311 135 276 135 z "},"¿":{"ha":658,"x_min":46,"x_max":604,"o":"m 331 605 q 276 625 296 605 q 256 677 256 646 q 276 727 256 707 q 331 747 296 747 q 386 727 366 747 q 405 677 405 707 q 386 625 405 646 q 331 605 366 605 m 400 461 q 388 358 399 397 q 355 287 377 318 q 285 203 333 255 l 269 186 q 216 126 235 150 q 185 71 198 102 q 173 -1 173 39 q 212 -114 173 -75 q 324 -153 251 -153 q 399 -137 365 -153 q 455 -90 434 -121 q 477 -14 477 -59 l 604 -14 q 566 -145 603 -89 q 466 -232 530 -201 q 324 -262 403 -262 q 174 -231 237 -262 q 79 -143 112 -201 q 46 -4 46 -85 q 69 105 46 54 q 127 200 92 157 q 212 292 163 243 q 260 366 246 326 q 273 461 273 407 l 400 461 z "},"\"":{"ha":446,"x_min":92,"x_max":372,"o":"m 168 708 l 92 708 l 93 943 l 93 1042 l 189 1042 l 189 949 l 168 708 m 352 708 l 276 708 l 277 948 l 277 1042 l 372 1042 l 372 949 l 352 708 z "},"'":{"ha":243,"x_min":70,"x_max":173,"o":"m 158 718 l 70 718 l 71 956 l 71 1042 l 173 1042 l 173 966 l 158 718 z "},";":{"ha":294,"x_min":28,"x_max":231,"o":"m 28 0 m 153 741 q 211 720 190 741 q 231 665 231 699 q 211 612 231 633 q 153 592 190 592 q 95 613 116 592 q 75 665 75 633 q 95 720 75 699 q 153 741 116 741 m 219 48 q 187 -84 219 -16 q 100 -197 155 -152 l 28 -148 q 78 -54 61 -101 q 95 46 95 -7 l 95 149 l 219 149 l 219 48 z "},"/":{"ha":574,"x_min":12,"x_max":532,"o":"m 12 -85 l 425 987 l 532 987 l 121 -85 l 12 -85 z "},"_":{"ha":627,"x_min":3,"x_max":625,"o":"m 3 -102 l 3 0 l 625 0 l 625 -102 l 3 -102 z "},"{":{"ha":471,"x_min":43,"x_max":455,"o":"m 314 66 q 347 -86 314 -24 q 455 -172 379 -148 l 429 -249 q 243 -131 298 -212 q 187 66 187 -50 l 187 207 q 152 326 187 283 q 43 368 117 368 l 43 450 l 43 466 q 152 508 117 466 q 187 627 187 551 l 187 768 q 243 965 187 884 q 429 1083 298 1046 l 455 1006 q 347 920 379 982 q 314 768 314 859 l 314 627 q 286 502 314 557 q 200 417 258 448 q 286 332 258 387 q 314 207 314 277 l 314 66 z "},"}":{"ha":471,"x_min":14,"x_max":425,"o":"m 281 627 q 317 508 281 551 q 425 466 352 466 l 425 390 l 425 368 q 317 326 352 368 q 281 207 281 283 l 281 66 q 226 -131 281 -50 q 40 -249 171 -212 l 14 -172 q 122 -86 90 -148 q 155 66 155 -24 l 155 207 q 185 335 155 280 q 279 417 216 389 q 185 499 216 445 q 155 627 155 554 l 155 768 q 122 920 155 859 q 14 1006 90 982 l 40 1083 q 226 965 171 1046 q 281 768 281 884 l 281 627 z "},"[":{"ha":370,"x_min":99,"x_max":355,"o":"m 226 1027 l 226 -110 l 355 -110 l 355 -212 l 99 -212 l 99 1128 l 355 1128 l 355 1027 l 226 1027 z "},"]":{"ha":370,"x_min":7,"x_max":264,"o":"m 264 1128 l 264 -212 l 7 -212 l 7 -110 l 137 -110 l 137 1027 l 7 1027 l 7 1128 l 264 1128 z "},"(":{"ha":476,"x_min":90,"x_max":450,"o":"m 90 401 q 143 732 90 584 q 274 978 197 881 q 423 1114 351 1074 l 450 1032 q 338 903 391 987 q 251 691 286 819 q 217 403 217 564 l 217 393 q 251 104 217 232 q 338 -109 286 -23 q 450 -243 391 -195 l 423 -319 q 274 -182 351 -278 q 143 63 197 -85 q 90 394 90 211 l 90 401 z "},")":{"ha":484,"x_min":26,"x_max":385,"o":"m 385 394 q 332 63 385 211 q 202 -182 279 -85 q 53 -319 125 -278 l 26 -243 q 138 -113 85 -199 q 225 103 191 -26 q 259 393 259 232 l 259 403 q 223 691 259 562 q 134 907 187 821 q 26 1038 81 994 l 53 1114 q 202 978 125 1074 q 332 732 279 881 q 385 401 385 584 l 385 394 z "},"—":{"ha":1084,"x_min":98,"x_max":1004,"o":"m 98 442 l 98 544 l 1004 544 l 1004 442 l 98 442 z "},"–":{"ha":911,"x_min":110,"x_max":789,"o":"m 110 442 l 110 544 l 789 544 l 789 442 l 110 442 z "},"-":{"ha":383,"x_min":25,"x_max":357,"o":"m 25 369 l 25 471 l 357 471 l 357 369 l 25 369 z "},"­":{"ha":407,"x_min":25,"x_max":357,"o":"m 25 369 m 25 369 l 25 471 l 357 471 l 357 369 l 25 369 z "},"«":{"ha":652,"x_min":68,"x_max":590,"o":"m 68 102 m 190 372 l 365 102 l 268 102 l 68 366 l 68 374 l 68 378 l 268 642 l 365 642 l 190 372 m 415 372 l 590 102 l 493 102 l 293 366 l 293 374 l 293 378 l 493 642 l 590 642 l 415 372 z "},"»":{"ha":652,"x_min":70,"x_max":604,"o":"m 70 104 m 366 380 l 366 371 l 366 367 l 166 104 l 70 104 l 244 374 l 70 644 l 166 644 l 366 380 m 604 380 l 604 371 l 604 367 l 404 104 l 307 104 l 481 374 l 307 644 l 404 644 l 604 380 z "},"‹":{"ha":417,"x_min":73,"x_max":370,"o":"m 195 374 l 370 104 l 273 104 l 73 368 l 73 376 l 73 380 l 273 644 l 370 644 l 195 374 z "},"›":{"ha":417,"x_min":61,"x_max":357,"o":"m 357 380 l 357 371 l 357 367 l 157 104 l 61 104 l 235 374 l 61 644 l 157 644 l 357 380 z "},"„":{"ha":481,"x_min":24,"x_max":417,"o":"m 215 54 q 183 -85 215 -14 q 96 -203 151 -157 l 24 -155 q 73 -56 57 -106 q 89 52 89 -6 l 89 167 l 215 167 l 215 54 m 417 54 q 385 -85 417 -14 q 298 -203 353 -157 l 227 -155 q 274 -56 258 -106 q 290 52 290 -6 l 290 167 l 417 167 l 417 54 z "},"“":{"ha":493,"x_min":71,"x_max":477,"o":"m 71 728 m 71 810 q 103 942 71 874 q 191 1055 135 1010 l 262 1006 q 213 913 229 960 q 197 812 197 866 l 197 728 l 71 728 l 71 810 m 286 810 q 317 942 286 874 q 405 1055 349 1010 l 477 1006 q 427 913 444 960 q 411 812 411 866 l 411 728 l 286 728 l 286 810 z "},"”":{"ha":498,"x_min":41,"x_max":440,"o":"m 41 710 m 231 955 q 199 823 231 891 q 113 710 168 755 l 41 759 q 90 852 73 804 q 106 954 106 899 l 106 1042 l 231 1042 l 231 955 m 440 955 q 408 823 440 891 q 321 710 376 755 l 250 759 q 298 852 282 804 q 315 954 315 899 l 315 1042 l 440 1042 l 440 955 z "},"‘":{"ha":279,"x_min":65,"x_max":256,"o":"m 65 810 q 97 942 65 874 q 184 1055 129 1010 l 256 1006 q 207 913 223 960 q 191 812 191 866 l 191 728 l 65 728 l 65 810 z "},"’":{"ha":279,"x_min":33,"x_max":223,"o":"m 223 955 q 191 823 223 891 q 104 710 159 755 l 33 759 q 81 852 65 804 q 98 954 98 899 l 98 1042 l 223 1042 l 223 955 z "},"‚":{"ha":277,"x_min":24,"x_max":215,"o":"m 215 54 q 183 -78 215 -10 q 96 -191 151 -146 l 24 -142 q 73 -50 57 -97 q 89 52 89 -2 l 89 124 l 215 124 l 215 54 z "},"׳":{"ha":233,"x_min":10,"x_max":189,"o":"m 10 646 q 74 834 74 731 l 74 966 l 189 966 l 188 844 q 160 714 188 777 q 86 610 132 652 l 10 646 z "},"״":{"ha":456,"x_min":18,"x_max":401,"o":"m 18 646 q 82 834 82 730 l 82 966 l 197 966 l 197 844 q 169 715 197 777 q 95 610 140 652 l 18 646 m 223 646 q 287 834 287 730 l 287 966 l 401 966 l 401 844 q 373 714 401 777 q 300 610 345 652 l 223 646 z "},"־":{"ha":351,"x_min":41,"x_max":310,"o":"m 41 698 l 41 799 l 310 799 l 310 698 l 41 698 z "},"‏":{"ha":0,"x_min":-594,"x_max":-182,"o":"m -182 -136 l -261 -136 l -261 785 l -444 785 l -314 674 l -426 674 l -594 825 l -433 987 l -320 987 l -450 865 l -182 865 l -182 -136 z "},"‎":{"ha":0,"x_min":-553,"x_max":-140,"o":"m -140 825 l -309 674 l -420 674 l -292 785 l -473 785 l -473 -136 l -553 -136 l -553 865 l -284 865 l -414 987 l -302 987 l -140 825 z "},"‍":{"ha":0,"x_min":-578,"x_max":-214,"o":"m -338 832 l -214 707 l -273 648 l -359 735 l -359 -136 l -438 -136 l -438 730 l -518 648 l -578 707 l -454 832 l -578 958 l -519 1017 l -396 892 l -273 1017 l -214 958 l -338 832 z "},"‌":{"ha":0,"x_min":-437,"x_max":-357,"o":"m -357 865 l -357 -136 l -437 -136 l -437 865 l -357 865 z "},"€":{"ha":781,"x_min":65,"x_max":714,"o":"m 553 92 q 701 115 630 92 l 714 7 q 551 -14 635 -14 q 362 30 444 -14 q 234 158 281 73 q 186 368 188 243 l 65 368 l 65 451 l 185 451 l 185 545 l 65 545 l 65 629 l 186 629 q 236 833 190 750 q 363 959 283 917 q 551 1001 444 1001 q 714 980 623 1001 l 701 871 q 552 895 626 895 q 384 828 445 895 q 317 629 322 762 l 577 629 l 577 545 l 317 545 l 317 451 l 577 451 l 577 368 l 317 368 q 382 161 320 231 q 553 92 444 92 z "},"¢":{"ha":760,"x_min":71,"x_max":690,"o":"m 398 88 q 480 107 442 88 q 543 158 519 125 q 570 232 567 191 l 690 232 q 656 125 688 176 q 571 39 624 74 q 454 -8 518 3 l 454 -166 l 328 -166 l 328 -7 q 186 60 243 8 q 100 187 128 111 q 71 353 71 263 l 71 381 q 100 547 71 471 q 186 674 128 623 q 328 741 243 726 l 328 894 l 454 894 l 454 743 q 575 696 523 732 q 658 604 628 659 q 690 481 688 548 l 570 481 q 545 565 567 528 q 485 624 523 602 q 398 646 447 646 q 245 569 292 646 q 198 381 198 493 l 198 353 q 244 164 198 240 q 398 88 291 88 z "},"¤":{"ha":990,"x_min":71,"x_max":930,"o":"m 902 412 q 884 285 902 346 q 833 172 867 224 l 930 74 l 840 -18 l 747 75 q 631 9 695 33 q 498 -14 568 -14 q 367 9 430 -14 q 251 75 303 33 l 161 -18 l 71 74 l 165 170 q 113 283 132 222 q 95 412 95 345 q 115 547 95 483 q 172 664 135 610 l 71 766 l 161 857 l 260 756 q 371 816 311 795 q 498 837 432 837 q 627 816 565 837 q 739 755 688 795 l 840 858 l 930 766 l 827 661 q 883 545 863 608 q 902 412 902 481 m 498 102 q 642 144 576 102 q 746 257 707 186 q 784 412 784 328 q 746 567 784 496 q 642 680 707 638 q 498 722 576 722 q 355 680 420 722 q 251 567 290 638 q 212 412 212 496 q 251 257 212 328 q 355 144 290 186 q 498 102 420 102 z "},"$":{"ha":781,"x_min":75,"x_max":707,"o":"m 707 256 q 637 71 707 140 q 445 -12 567 1 l 445 -141 l 344 -141 l 344 -12 q 209 29 269 -4 q 112 127 149 62 q 75 291 75 193 l 201 291 q 256 140 201 186 q 390 94 311 94 q 530 137 479 94 q 580 254 580 180 q 536 360 580 317 q 389 438 492 404 q 183 549 253 479 q 113 732 113 618 q 142 864 113 807 q 226 956 172 921 q 355 999 281 990 l 355 1147 l 458 1147 l 458 998 q 635 902 572 983 q 698 684 698 821 l 572 684 q 552 792 572 745 q 495 866 533 840 q 405 893 458 893 q 281 850 323 893 q 239 734 239 808 q 257 657 239 690 q 317 600 275 625 q 433 549 359 574 q 585 481 525 519 q 675 389 644 444 q 707 256 707 334 z "},"£":{"ha":808,"x_min":62,"x_max":766,"o":"m 766 106 l 765 0 l 64 0 l 64 106 l 117 106 q 164 165 149 114 q 179 272 179 216 l 174 422 l 62 422 l 62 528 l 170 528 l 164 705 q 203 863 164 796 q 311 966 242 930 q 466 1001 379 1001 q 616 968 553 1001 q 713 876 680 935 q 747 737 747 816 l 615 737 q 569 856 615 817 q 455 895 524 895 q 374 873 410 895 q 317 807 338 850 q 296 705 296 764 l 302 528 l 517 528 l 517 422 l 306 422 l 311 273 q 300 180 311 224 q 269 106 290 137 l 766 106 z "},"¥":{"ha":730,"x_min":10,"x_max":720,"o":"m 471 499 l 648 499 l 648 415 l 428 415 l 428 302 l 648 302 l 648 218 l 428 218 l 428 0 l 296 0 l 296 218 l 81 218 l 81 302 l 296 302 l 296 415 l 81 415 l 81 499 l 259 499 l 10 987 l 158 987 l 366 540 l 574 987 l 720 987 l 471 499 z "},"~":{"ha":945,"x_min":89,"x_max":857,"o":"m 857 527 q 828 400 857 458 q 750 308 800 342 q 637 273 700 273 q 536 295 581 273 q 435 368 491 317 q 369 418 397 402 q 308 435 340 435 q 228 398 256 435 q 199 297 199 361 l 89 296 q 117 423 89 366 q 195 512 144 479 q 308 544 245 544 q 410 521 364 544 q 511 450 456 498 q 577 398 549 414 q 637 382 606 382 q 697 401 671 382 q 738 452 724 419 q 753 527 753 485 l 857 527 z "},"÷":{"ha":793,"x_min":48,"x_max":725,"o":"m 391 821 q 449 799 428 821 q 469 745 469 778 q 449 692 469 713 q 391 671 428 671 q 333 691 353 671 q 313 745 313 712 q 333 799 313 778 q 391 821 353 821 m 48 408 l 48 532 l 725 532 l 725 408 l 48 408 m 391 267 q 449 245 428 267 q 469 191 469 224 q 449 138 469 159 q 391 117 428 117 q 333 138 353 117 q 313 191 313 159 q 333 245 313 224 q 391 267 353 267 z "},"=":{"ha":762,"x_min":103,"x_max":669,"o":"m 103 553 l 103 661 l 669 661 l 669 553 l 103 553 m 103 271 l 103 379 l 669 379 l 669 271 l 103 271 z "},">":{"ha":726,"x_min":92,"x_max":671,"o":"m 671 489 l 671 411 l 671 391 l 92 134 l 92 263 l 540 441 l 92 617 l 92 745 l 671 489 z "},"<":{"ha":706,"x_min":49,"x_max":604,"o":"m 604 613 l 180 437 l 604 265 l 604 133 l 49 390 l 49 468 l 49 488 l 604 745 l 604 613 z "},"¬":{"ha":770,"x_min":86,"x_max":650,"o":"m 650 543 l 650 434 l 650 255 l 524 255 l 524 434 l 86 434 l 86 543 l 650 543 z "},"−":{"ha":794,"x_min":114,"x_max":680,"o":"m 114 442 l 114 544 l 680 544 l 680 442 l 114 442 z "},"×":{"ha":741,"x_min":60,"x_max":671,"o":"m 590 138 l 366 367 l 142 138 l 60 221 l 285 450 l 62 677 l 143 760 l 366 533 l 589 760 l 670 677 l 448 450 l 671 221 l 590 138 z "},"%":{"ha":1017,"x_min":71,"x_max":957,"o":"m 71 798 q 96 900 71 854 q 166 974 121 947 q 273 1002 212 1002 q 381 975 335 1002 q 452 901 427 947 q 477 798 477 854 l 477 745 q 452 643 477 690 q 382 570 428 597 q 275 543 336 543 q 167 570 213 543 q 96 643 121 597 q 71 745 71 690 l 71 798 m 166 745 q 194 659 166 694 q 275 624 222 624 q 354 659 326 624 q 382 745 382 694 l 382 798 q 354 885 382 849 q 273 920 326 920 q 215 903 239 920 q 178 859 191 886 q 166 798 166 831 l 166 745 m 232 120 l 714 892 l 785 847 l 303 75 l 232 120 m 552 242 q 577 345 552 298 q 647 418 602 391 q 754 446 693 446 q 862 418 816 446 q 932 345 908 391 q 957 242 957 298 l 957 189 q 932 86 957 133 q 862 13 908 40 q 755 -14 817 -14 q 648 13 694 -14 q 577 86 602 40 q 552 189 552 133 l 552 242 m 646 189 q 659 129 646 157 q 695 84 671 101 q 755 67 720 67 q 835 102 807 67 q 863 189 863 138 l 863 242 q 834 329 863 294 q 754 364 806 364 q 674 329 703 364 q 646 242 646 294 l 646 189 z "},"+":{"ha":788,"x_min":53,"x_max":730,"o":"m 730 412 l 455 412 l 455 99 l 328 99 l 328 412 l 53 412 l 53 529 l 328 529 l 328 818 l 455 818 l 455 529 l 730 529 l 730 412 z "},"±":{"ha":743,"x_min":66,"x_max":687,"o":"m 687 579 l 687 477 l 441 477 l 441 196 l 327 196 l 327 477 l 66 477 l 66 579 l 327 579 l 327 859 l 441 859 l 441 579 l 687 579 m 92 102 l 659 102 l 659 1 l 92 1 l 92 102 z "},"|":{"ha":340,"x_min":119,"x_max":221,"o":"m 119 -183 l 119 987 l 221 987 l 221 -183 l 119 -183 z "},"¦":{"ha":334,"x_min":100,"x_max":227,"o":"m 100 473 l 100 987 l 227 987 l 227 473 l 100 473 m 100 353 l 227 353 l 227 -183 l 100 -183 l 100 353 z "},"@":{"ha":1246,"x_min":77,"x_max":1177,"o":"m 656 970 q 939 900 821 970 q 1117 697 1056 829 q 1177 385 1177 565 q 1177 341 1177 356 q 1144 170 1173 250 q 1053 37 1114 89 q 899 -14 992 -14 q 795 16 837 -14 q 736 100 753 45 q 654 15 701 45 q 555 -14 606 -14 q 418 52 467 -14 q 370 231 370 117 q 373 283 370 247 q 426 487 383 399 q 533 624 469 576 q 666 671 596 671 q 746 662 712 671 q 805 638 781 652 q 862 599 830 623 l 827 223 q 826 189 826 211 q 851 93 826 119 q 913 66 876 66 q 1005 102 966 66 q 1064 201 1043 138 q 1088 341 1085 263 q 1090 392 1090 376 q 981 755 1090 628 q 654 882 873 882 q 409 812 514 882 q 243 616 303 742 q 177 324 184 490 q 176 279 176 293 q 227 11 176 123 q 374 -163 277 -102 q 608 -223 471 -223 q 729 -209 668 -223 q 832 -170 790 -195 l 858 -247 q 743 -292 813 -276 q 605 -307 673 -307 q 322 -236 441 -307 q 140 -32 203 -165 q 77 282 77 100 q 78 324 77 310 q 160 657 86 510 q 361 887 233 804 q 656 970 490 970 m 587 83 q 663 116 625 83 q 726 218 701 150 l 727 223 l 758 565 q 677 585 720 585 q 586 550 627 585 q 517 448 545 516 q 481 283 490 380 q 479 239 479 260 q 507 123 479 163 q 587 83 534 83 z "},"&":{"ha":864,"x_min":68,"x_max":860,"o":"m 708 0 l 643 78 q 526 10 593 33 q 389 -14 458 -14 q 219 22 292 -14 q 107 121 146 58 q 68 265 68 184 q 92 367 68 321 q 156 452 115 413 q 260 535 197 490 q 177 655 204 604 q 149 762 149 707 q 180 891 149 838 q 266 973 210 945 q 397 1001 322 1001 q 521 973 467 1001 q 603 897 574 945 q 632 793 632 849 q 598 677 632 726 q 498 578 564 627 l 424 523 l 643 260 q 688 456 688 348 l 802 456 q 719 170 802 283 l 860 0 l 708 0 m 396 899 q 331 881 358 899 q 290 833 304 863 q 276 766 276 802 q 296 691 276 730 q 356 603 317 652 l 426 653 q 494 715 473 685 q 515 793 515 745 q 500 845 515 820 q 459 884 486 869 q 396 899 433 899 m 389 88 q 484 108 437 88 q 571 165 531 128 l 330 454 l 302 433 q 217 342 238 385 q 195 265 195 299 q 217 176 195 216 q 282 112 239 136 q 389 88 326 88 z "},"¶":{"ha":680,"x_min":45,"x_max":566,"o":"m 438 353 l 379 353 q 199 393 274 353 q 84 506 123 434 q 45 670 45 578 q 84 833 45 762 q 199 946 123 905 q 379 987 274 987 l 566 987 l 566 0 l 438 0 l 438 353 z "},"©":{"ha":1091,"x_min":62,"x_max":1024,"o":"m 543 1001 q 784 934 674 1001 q 959 751 895 867 q 1024 494 1024 635 q 959 237 1024 353 q 784 53 895 121 q 543 -14 674 -14 q 301 53 412 -14 q 126 237 191 121 q 62 494 62 353 q 126 751 62 635 q 301 934 191 867 q 543 1001 412 1001 m 543 66 q 745 123 652 66 q 891 278 838 180 q 945 494 945 376 q 891 710 945 613 q 745 864 838 808 q 543 920 653 920 q 341 864 433 920 q 194 710 248 808 q 140 494 140 613 q 195 278 140 376 q 341 123 249 180 q 543 66 433 66 m 759 406 q 700 247 759 300 q 534 193 640 193 q 410 225 463 193 q 328 318 357 258 q 299 455 299 378 l 299 533 q 328 670 299 610 q 410 763 357 730 q 534 795 463 795 q 700 742 640 795 q 760 583 760 688 l 661 583 q 629 679 661 649 q 534 709 597 709 q 433 661 469 709 q 397 534 397 613 l 397 455 q 433 327 397 375 q 534 279 469 279 q 629 309 597 279 q 660 406 660 338 l 759 406 z "},"®":{"ha":1091,"x_min":61,"x_max":1024,"o":"m 543 1001 q 784 934 674 1001 q 959 751 895 867 q 1024 494 1024 635 q 959 237 1024 353 q 784 53 895 121 q 543 -14 673 -14 q 301 53 411 -14 q 126 237 191 121 q 61 494 61 353 q 126 751 61 635 q 301 934 191 867 q 543 1001 411 1001 m 543 66 q 744 123 652 66 q 891 278 837 180 q 945 494 945 376 q 891 710 945 613 q 745 864 837 808 q 543 920 652 920 q 340 864 433 920 q 194 710 248 808 q 140 494 140 613 q 194 278 140 376 q 340 123 248 180 q 543 66 433 66 m 749 312 q 761 226 749 255 l 761 215 l 662 215 q 653 313 653 238 l 653 348 q 630 421 653 398 q 553 444 607 444 l 443 444 l 443 215 l 347 215 l 347 790 l 534 790 q 695 746 637 790 q 753 617 753 703 q 665 490 753 534 q 730 436 710 472 q 749 349 749 400 l 749 312 m 549 530 q 626 553 594 532 q 657 613 657 575 q 646 667 657 648 q 607 696 634 687 q 534 705 581 705 l 443 705 l 443 530 l 549 530 z "},"§":{"ha":852,"x_min":61,"x_max":777,"o":"m 650 107 q 723 26 699 73 q 747 -87 747 -20 q 706 -221 747 -165 q 590 -306 665 -277 q 416 -336 515 -336 q 241 -307 321 -336 q 111 -213 161 -278 q 61 -43 61 -147 l 188 -42 q 221 -153 188 -110 q 306 -215 254 -196 q 416 -234 357 -234 q 526 -215 479 -234 q 596 -163 572 -196 q 620 -89 620 -130 q 598 -18 620 -46 q 527 34 577 10 q 382 86 477 58 q 207 149 275 115 q 102 238 138 184 q 65 374 65 292 q 98 484 65 436 q 189 559 130 532 q 119 641 142 594 q 96 753 96 688 q 137 884 96 828 q 253 971 178 940 q 428 1002 328 1002 q 607 968 532 1002 q 722 868 682 934 q 762 709 762 802 l 635 709 q 611 806 635 762 q 540 874 587 849 q 428 899 493 899 q 313 880 359 899 q 245 828 267 861 q 222 755 222 795 q 242 680 222 708 q 311 629 262 651 q 459 579 360 607 q 637 515 570 549 q 741 428 705 481 q 777 292 777 374 q 744 181 777 229 q 650 107 711 134 m 192 375 q 212 299 192 328 q 282 247 232 270 q 432 196 332 224 q 541 161 502 176 q 622 209 593 175 q 650 290 650 243 q 628 362 650 333 q 555 416 606 392 q 409 469 505 441 q 297 505 342 487 q 218 458 245 492 q 192 375 192 424 z "},"°":{"ha":519,"x_min":89,"x_max":432,"o":"m 262 1002 q 347 978 308 1002 q 409 913 386 954 q 432 825 432 873 q 409 738 432 778 q 347 675 386 698 q 262 652 308 652 q 175 675 215 652 q 112 738 136 698 q 89 825 89 778 q 112 913 89 873 q 176 978 136 954 q 262 1002 216 1002 m 262 738 q 323 763 298 738 q 347 825 347 788 q 323 890 347 864 q 262 916 298 916 q 199 890 225 916 q 174 825 174 864 q 199 763 174 788 q 262 738 225 738 z "},"^":{"ha":581,"x_min":43,"x_max":535,"o":"m 418 494 l 290 823 l 161 494 l 43 494 l 246 987 l 322 987 l 333 987 l 535 494 l 418 494 z "},"﬩":{"ha":765,"x_min":43,"x_max":720,"o":"m 435 818 l 435 513 l 720 513 l 720 408 l 43 408 l 43 513 l 321 513 l 321 818 l 435 818 z "},"̀":{"ha":0,"x_min":-583,"x_max":-298,"o":"m -407 843 l -583 1042 l -429 1042 l -298 843 l -407 843 z "},"́":{"ha":0,"x_min":-447,"x_max":-163,"o":"m -163 1042 l -345 843 l -447 843 l -315 1042 l -163 1042 z "},"̃":{"ha":0,"x_min":-602,"x_max":-121,"o":"m -121 1017 q -141 932 -121 969 q -194 874 -160 895 q -268 854 -227 854 q -321 863 -300 854 q -368 888 -343 871 q -408 911 -390 903 q -449 918 -425 918 q -497 896 -478 918 q -517 842 -517 874 l -602 847 q -582 933 -602 895 q -530 992 -563 971 q -456 1014 -496 1014 q -410 1006 -430 1014 q -361 981 -389 998 q -316 957 -335 964 q -274 949 -297 949 q -226 971 -245 949 q -206 1025 -206 993 l -121 1017 z "},"´":{"ha":437,"x_min":83,"x_max":368,"o":"m 368 1042 l 185 843 l 83 843 l 215 1042 l 368 1042 z "},"¸":{"ha":345,"x_min":79,"x_max":290,"o":"m 186 -36 q 260 -71 231 -43 q 290 -153 290 -99 q 236 -257 290 -218 q 83 -295 182 -295 l 79 -223 q 160 -207 129 -223 q 191 -156 191 -190 q 180 -120 191 -133 q 146 -101 169 -107 q 82 -92 123 -95 l 103 0 l 194 0 l 186 -36 z "},"ˆ":{"ha":655,"x_min":115,"x_max":526,"o":"m 526 850 l 422 850 l 320 965 l 219 850 l 115 850 l 115 857 l 282 1042 l 358 1042 l 526 857 l 526 850 z "},"¨":{"ha":581,"x_min":68,"x_max":509,"o":"m 142 1002 q 197 982 178 1002 q 217 930 217 962 q 197 880 217 900 q 142 860 178 860 q 87 880 107 860 q 68 930 68 900 q 87 982 68 962 q 142 1002 107 1002 m 434 1001 q 489 981 469 1001 q 509 929 509 960 q 489 879 509 899 q 434 859 469 859 q 379 879 399 859 q 360 929 360 899 q 379 981 360 960 q 434 1001 399 1001 z "},"`":{"ha":430,"x_min":38,"x_max":322,"o":"m 214 843 l 38 1042 l 191 1042 l 322 843 l 214 843 z "},"¯":{"ha":637,"x_min":97,"x_max":553,"o":"m 97 884 l 97 980 l 553 980 l 553 884 l 97 884 z "},"˚":{"ha":466,"x_min":82,"x_max":374,"o":"m 229 1096 q 302 1077 269 1096 q 355 1026 336 1059 q 374 955 374 994 q 355 885 374 916 q 302 835 336 853 q 229 817 269 817 q 154 835 187 817 q 101 885 121 853 q 82 955 82 916 q 101 1026 82 994 q 154 1077 121 1059 q 229 1096 188 1096 m 229 877 q 285 900 262 877 q 307 955 307 924 q 285 1011 307 987 q 229 1036 262 1036 q 172 1011 195 1036 q 150 955 150 987 q 160 917 150 935 q 188 888 170 899 q 229 877 206 877 z "},"˜":{"ha":656,"x_min":84,"x_max":564,"o":"m 564 1017 q 545 932 564 969 q 492 874 526 895 q 418 854 458 854 q 364 863 386 854 q 317 888 342 871 q 277 911 294 903 q 236 918 260 918 q 188 896 208 918 q 169 842 169 874 l 84 847 q 103 933 84 895 q 155 992 122 971 q 230 1014 189 1014 q 276 1006 256 1014 q 324 981 296 998 q 368 957 349 965 q 412 949 388 949 q 460 971 440 949 q 479 1025 479 993 l 564 1017 z "},"ְ":{"ha":0,"x_min":352,"x_max":458,"o":"m 405 -214 q 367 -200 382 -214 q 352 -165 352 -186 q 367 -130 352 -144 q 405 -115 382 -115 q 443 -129 428 -115 q 458 -165 458 -143 q 443 -200 458 -186 q 405 -214 428 -214 m 405 -371 q 367 -357 382 -371 q 352 -321 352 -342 q 367 -286 352 -300 q 405 -272 382 -272 q 443 -286 428 -272 q 458 -321 458 -300 q 443 -357 458 -342 q 405 -371 428 -371 z "},"ֱ":{"ha":0,"x_min":197,"x_max":614,"o":"m 250 -214 q 213 -200 228 -214 q 197 -165 197 -186 q 213 -130 197 -144 q 250 -115 228 -115 q 288 -129 273 -115 q 303 -165 303 -143 q 288 -200 303 -186 q 250 -214 273 -214 m 405 -214 q 367 -200 382 -214 q 352 -165 352 -186 q 367 -130 352 -144 q 405 -115 382 -115 q 443 -129 428 -115 q 458 -165 458 -143 q 443 -200 458 -186 q 405 -214 428 -214 m 562 -214 q 523 -200 538 -214 q 508 -165 508 -186 q 523 -130 508 -144 q 562 -115 538 -115 q 599 -130 584 -115 q 614 -165 614 -144 q 599 -200 614 -186 q 562 -214 584 -214 m 328 -347 q 290 -333 305 -347 q 275 -298 275 -319 q 290 -262 275 -277 q 328 -248 305 -248 q 366 -263 351 -248 q 381 -298 381 -277 q 366 -333 381 -319 q 328 -347 351 -347 m 562 -371 q 523 -357 538 -371 q 508 -321 508 -342 q 523 -286 508 -300 q 562 -272 538 -272 q 599 -286 584 -272 q 614 -321 614 -300 q 599 -357 614 -342 q 562 -371 584 -371 z "},"ֲ":{"ha":0,"x_min":204,"x_max":608,"o":"m 555 -214 q 516 -200 532 -214 q 501 -165 501 -186 q 516 -130 501 -144 q 555 -115 532 -115 q 592 -130 577 -115 q 608 -165 608 -144 q 592 -200 608 -186 q 555 -214 577 -214 m 204 -132 l 453 -132 l 453 -196 l 204 -196 l 204 -132 m 555 -371 q 516 -357 532 -371 q 501 -321 501 -342 q 516 -286 501 -300 q 555 -272 532 -272 q 592 -286 577 -272 q 608 -321 608 -300 q 592 -357 608 -342 q 555 -371 577 -371 z "},"ֳ":{"ha":0,"x_min":203,"x_max":608,"o":"m 555 -214 q 516 -200 532 -214 q 501 -165 501 -186 q 516 -130 501 -144 q 555 -115 532 -115 q 592 -130 577 -115 q 608 -165 608 -144 q 592 -200 608 -186 q 555 -214 577 -214 m 331 -359 q 293 -345 309 -359 q 278 -310 278 -330 q 280 -294 278 -301 q 288 -277 283 -288 q 302 -243 297 -260 q 309 -196 307 -226 l 203 -196 l 203 -132 l 455 -132 l 455 -196 l 352 -196 q 359 -243 354 -226 q 373 -277 364 -260 q 381 -294 378 -288 q 383 -310 383 -301 q 368 -345 383 -331 q 331 -359 353 -359 m 555 -371 q 516 -357 532 -371 q 501 -321 501 -342 q 516 -286 501 -300 q 555 -272 532 -272 q 592 -286 577 -272 q 608 -321 608 -300 q 592 -357 608 -342 q 555 -371 577 -371 z "},"ִ":{"ha":0,"x_min":352,"x_max":458,"o":"m 405 -214 q 368 -199 383 -214 q 352 -165 352 -184 q 367 -130 352 -144 q 405 -115 382 -115 q 443 -129 428 -115 q 458 -165 458 -143 q 443 -200 458 -186 q 405 -214 428 -214 z "},"ֵ":{"ha":0,"x_min":275,"x_max":535,"o":"m 328 -214 q 290 -199 306 -214 q 275 -165 275 -184 q 290 -130 275 -144 q 328 -115 305 -115 q 366 -130 351 -115 q 381 -165 381 -144 q 366 -200 381 -186 q 328 -214 351 -214 m 482 -214 q 444 -199 460 -214 q 429 -165 429 -184 q 444 -130 429 -144 q 482 -115 460 -115 q 520 -129 505 -115 q 535 -165 535 -143 q 520 -200 535 -186 q 482 -214 505 -214 z "},"ֶ":{"ha":0,"x_min":275,"x_max":535,"o":"m 328 -214 q 290 -199 306 -214 q 275 -165 275 -184 q 290 -130 275 -144 q 328 -115 305 -115 q 366 -130 351 -115 q 381 -165 381 -144 q 366 -200 381 -186 q 328 -214 351 -214 m 482 -214 q 444 -199 460 -214 q 429 -165 429 -184 q 444 -130 429 -144 q 482 -115 460 -115 q 520 -129 505 -115 q 535 -165 535 -143 q 520 -200 535 -186 q 482 -214 505 -214 m 405 -347 q 367 -333 382 -347 q 352 -298 352 -319 q 367 -263 352 -277 q 405 -248 382 -248 q 443 -262 428 -248 q 458 -298 458 -277 q 443 -333 458 -319 q 405 -347 428 -347 z "},"ַ":{"ha":0,"x_min":268,"x_max":542,"o":"m 268 -132 l 542 -132 l 542 -196 l 268 -196 l 268 -132 z "},"ׇ":{"ha":0,"x_min":285,"x_max":528,"o":"m 408 -382 q 370 -367 385 -382 q 354 -332 354 -352 q 356 -317 354 -323 q 363 -300 358 -311 q 377 -260 372 -282 q 385 -197 383 -237 l 285 -197 l 285 -132 l 528 -132 l 528 -197 l 429 -197 q 437 -259 431 -237 q 452 -300 443 -281 q 459 -317 457 -311 q 461 -332 461 -323 q 446 -368 461 -353 q 408 -382 431 -382 z "},"ָ":{"ha":0,"x_min":277,"x_max":533,"o":"m 407 -363 q 369 -348 385 -363 q 353 -313 353 -333 q 356 -298 353 -304 q 363 -280 358 -291 q 378 -245 372 -263 q 385 -196 383 -227 l 277 -196 l 277 -132 l 533 -132 l 533 -196 l 428 -196 q 435 -245 430 -227 q 450 -280 441 -263 q 457 -298 455 -292 q 460 -313 460 -304 q 445 -349 460 -334 q 407 -363 429 -363 z "},"ֹ":{"ha":0,"x_min":123,"x_max":231,"o":"m 177 903 q 139 917 155 903 q 123 951 123 932 q 139 987 123 972 q 177 1001 154 1001 q 215 987 200 1001 q 231 951 231 972 q 215 917 231 930 q 177 903 200 903 z "},"ֺ":{"ha":0,"x_min":123,"x_max":231,"o":"m 177 903 q 139 917 155 903 q 123 951 123 932 q 139 987 123 972 q 177 1001 154 1001 q 215 987 200 1001 q 231 951 231 972 q 215 917 231 930 q 177 903 200 903 z "},"ֻ":{"ha":0,"x_min":353,"x_max":629,"o":"m 406 -214 q 368 -199 384 -214 q 353 -165 353 -184 q 368 -130 353 -144 q 406 -115 383 -115 q 444 -129 429 -115 q 458 -165 458 -143 q 444 -200 458 -186 q 406 -214 429 -214 m 491 -340 q 453 -325 469 -340 q 437 -291 437 -311 q 453 -255 437 -269 q 491 -241 468 -241 q 529 -255 513 -241 q 544 -291 544 -270 q 529 -326 544 -312 q 491 -340 513 -340 m 576 -466 q 538 -451 554 -466 q 523 -416 523 -436 q 538 -381 523 -395 q 576 -366 553 -366 q 614 -380 599 -366 q 629 -416 629 -395 q 614 -452 629 -437 q 576 -466 599 -466 z "},"ּ":{"ha":0,"x_min":161,"x_max":268,"o":"m 214 356 q 177 371 192 356 q 161 406 161 386 q 177 441 161 427 q 214 456 192 456 q 253 441 237 456 q 268 406 268 427 q 253 370 268 385 q 214 356 237 356 z "},"ֿ":{"ha":0,"x_min":163,"x_max":493,"o":"m 163 993 l 493 993 l 493 920 l 163 920 l 163 993 z "},"ׁ":{"ha":0,"x_min":847,"x_max":954,"o":"m 901 903 q 863 917 878 903 q 847 951 847 932 q 862 987 847 972 q 901 1001 878 1001 q 938 987 923 1001 q 954 951 954 972 q 938 917 954 930 q 901 903 923 903 z "},"ׂ":{"ha":0,"x_min":109,"x_max":215,"o":"m 161 903 q 124 917 139 903 q 109 951 109 932 q 124 987 109 972 q 161 1001 139 1001 q 200 987 184 1001 q 215 951 215 972 q 200 917 215 930 q 161 903 184 903 z "},"ﬅ":{"ha":857,"x_min":41,"x_max":800,"o":"m 800 0 q 703 -14 757 -14 q 580 33 627 -14 q 534 182 534 79 l 534 638 l 400 638 l 400 734 l 534 734 l 534 912 l 534 929 q 476 947 514 939 q 407 954 438 954 q 315 917 347 954 q 283 812 283 879 l 283 0 l 157 0 l 157 638 l 41 638 l 41 734 l 157 734 l 157 812 q 218 992 157 928 q 387 1056 279 1056 q 523 1037 448 1056 q 661 988 598 1019 l 661 912 l 661 734 l 797 734 l 797 638 l 661 638 l 661 182 q 682 112 661 130 q 741 94 703 94 q 800 101 768 94 l 800 0 z "},"ﬆ":{"ha":1147,"x_min":64,"x_max":1099,"o":"m 1099 0 q 1002 -14 1056 -14 q 880 39 927 -14 q 833 202 833 92 l 833 638 l 705 638 l 705 734 l 833 734 l 833 792 q 800 907 833 865 q 697 949 767 949 q 607 920 639 949 q 576 842 576 890 q 583 777 576 808 q 606 703 591 747 q 633 610 624 650 q 642 519 642 570 l 572 519 l 515 519 q 496 579 515 550 q 443 627 478 608 q 361 646 408 646 q 279 630 312 646 q 232 590 247 615 q 216 537 216 566 q 230 489 216 508 q 280 454 244 469 q 385 423 317 438 q 535 374 477 402 q 621 304 593 345 q 649 203 649 262 q 614 91 649 140 q 514 14 578 41 q 365 -14 450 -14 q 203 20 271 -14 q 100 109 135 54 q 64 226 64 163 l 191 226 q 220 146 194 177 q 284 102 245 115 q 365 88 322 88 q 450 102 414 88 q 504 140 486 116 q 522 195 522 164 q 509 248 522 225 q 460 289 496 270 q 354 322 423 308 q 156 398 223 349 q 90 533 90 447 q 123 640 90 591 q 219 718 157 689 q 361 747 281 747 q 484 728 431 747 q 454 857 454 802 q 485 957 454 912 q 571 1027 516 1002 q 698 1053 627 1053 q 901 977 843 1053 q 960 793 959 900 l 960 734 l 1096 734 l 1096 638 l 960 638 l 960 201 q 1040 94 960 94 q 1099 101 1067 94 l 1099 0 z "}}}
